<svg width="383" height="107" viewBox="0 0 383 107" fill="none" xmlns="http://www.w3.org/2000/svg">
<path d="M88.4508 23.8264C90.6108 23.3892 94.7149 22.952 98.6029 22.952C103.787 22.952 106.919 23.6078 109.511 25.5751C111.887 27.1052 113.507 29.7283 113.507 33.1164C113.507 36.8325 111.347 40.3299 107.135 41.8601V41.9694C111.131 43.0623 114.803 46.4505 114.803 52.0245C114.803 55.6313 113.291 58.4729 111.131 60.4402C108.431 62.954 104.003 64.2656 96.9829 64.2656C93.0948 64.2656 90.1788 63.9377 88.4508 63.7191V23.8264ZM95.3628 39.7835H98.9269C103.679 39.7835 106.487 37.379 106.487 33.9908C106.487 30.1655 103.787 28.4167 99.3589 28.4167C97.3069 28.4167 96.1189 28.526 95.3628 28.7446V39.7835ZM95.3628 58.4729C96.2269 58.5822 97.4149 58.6915 99.0349 58.6915C103.463 58.6915 107.459 56.8335 107.459 51.9152C107.459 47.2155 103.571 45.2482 98.8189 45.2482H95.3628V58.4729Z" fill="#39B54A"/>
<path d="M125.495 51.2594C125.711 56.5056 129.599 58.8008 133.919 58.8008C137.159 58.8008 139.427 58.3636 141.587 57.4893L142.559 62.6261C140.183 63.6098 136.943 64.4842 132.947 64.4842C123.983 64.4842 118.799 58.6915 118.799 49.7293C118.799 41.6415 123.443 33.9908 132.191 33.9908C141.155 33.9908 144.071 41.8601 144.071 48.1992C144.071 49.62 143.963 50.713 143.855 51.3687H125.495V51.2594ZM137.591 46.1226C137.699 43.3902 136.511 38.9091 131.867 38.9091C127.547 38.9091 125.819 43.0623 125.495 46.1226H137.591Z" fill="#39B54A"/>
<path d="M172.044 26.4494C170.532 26.9959 167.832 27.4331 165.996 27.6517C161.784 28.3075 158.76 29.619 156.815 32.2421C155.087 34.428 154.007 37.9254 153.791 40.6578H154.007C155.735 36.9418 159.3 34.6466 163.296 34.6466C170.424 34.6466 175.284 40.2206 175.284 49.1828C175.284 58.6915 169.884 64.5935 161.784 64.5935C152.171 64.5935 148.067 55.6313 148.067 45.1389C148.067 37.9254 149.687 32.1328 153.251 28.0889C155.951 24.5914 159.732 22.8427 164.916 21.9683C167.292 21.6404 170.532 21.2033 172.476 20.5475L172.044 26.4494ZM161.676 39.7835C159.408 39.7835 157.68 41.095 156.707 42.953C155.735 44.5924 155.195 46.4505 155.195 48.9642C155.195 53.3361 157.032 59.238 161.784 59.238C166.428 59.238 168.156 54.2104 168.156 49.5107C168.156 45.1389 166.644 39.7835 161.676 39.7835Z" fill="#39B54A"/>
<path d="M187.272 34.5373V45.0296C187.272 49.62 187.056 52.7896 186.84 56.8335H187.056C188.568 53.4454 189.324 51.2594 190.836 48.1992L197.64 34.428H206.064V63.7191H199.476V53.2268C199.476 48.5271 199.692 46.3412 199.908 40.8764H199.692C198.288 44.3739 197.424 46.4505 196.128 49.2921C193.968 53.6639 191.484 58.9101 189.108 63.7191H180.576V34.5373H187.272Z" fill="#39B54A"/>
<path d="M219.78 34.5373V45.6854H230.364V34.5373H237.276V63.8284H230.364V51.478H219.78V63.8284H212.868V34.5373H219.78Z" fill="#39B54A"/>
<path d="M259.957 63.8284L259.525 60.5495H259.309C257.581 62.8447 254.773 64.4842 251.208 64.4842C245.7 64.4842 242.568 60.2217 242.568 55.7406C242.568 48.3085 248.724 44.5924 258.877 44.7017V44.2646C258.877 42.2972 258.121 39.1277 253.261 39.1277C250.56 39.1277 247.752 40.002 245.808 41.3136L244.404 36.5046C246.456 35.1931 250.02 33.8815 254.341 33.8815C263.197 33.8815 265.681 39.8927 265.681 46.2319V56.8335C265.681 59.4566 265.789 62.0797 266.113 63.8284H259.957ZM259.093 49.5107C254.125 49.4014 249.48 50.4944 249.48 54.9755C249.48 57.8172 251.208 59.238 253.477 59.238C256.285 59.238 258.229 57.2707 258.877 55.1941C259.093 54.6476 259.093 54.1011 259.093 53.5546V49.5107Z" fill="#39B54A"/>
<path d="M272.593 44.2646C272.593 40.4392 272.485 37.2697 272.377 34.5373H278.425L278.749 39.0184H278.857C280.909 35.7395 284.149 33.8815 288.253 33.8815C294.625 33.8815 299.809 39.6742 299.809 48.855C299.809 59.4566 293.545 64.5935 287.281 64.5935C283.825 64.5935 280.909 63.0633 279.505 60.6588H279.397V75.8509H272.485V44.2646H272.593ZM279.505 51.5873C279.505 52.3524 279.613 53.0082 279.721 53.6639C280.369 56.7242 282.853 58.8008 285.769 58.8008C290.197 58.8008 292.789 54.8662 292.789 49.0735C292.789 43.9367 290.413 39.6742 285.985 39.6742C283.069 39.6742 280.477 41.8601 279.721 45.1389C279.505 45.6854 279.397 46.4505 279.397 46.9969V51.5873H279.505Z" fill="#39B54A"/>
<path d="M319.033 23.2799H339.553V27.6517H324.001V41.095H338.365V45.4668H324.001V63.8284H319.033V23.2799Z" fill="#565E5E"/>
<path d="M376.274 46.0133C375.95 40.3299 375.626 33.5536 375.734 28.526H375.518C374.222 33.2257 372.602 38.3626 370.766 43.9367L364.07 63.6098H360.29L354.134 44.2646C352.298 38.5812 350.786 33.335 349.706 28.526H349.598C349.49 33.5536 349.165 40.3299 348.841 46.4505L347.869 63.8284H343.225L345.925 23.2799H352.19L358.67 42.8437C360.29 47.8713 361.586 52.2431 362.558 56.5056H362.774C363.746 52.4617 365.042 47.9806 366.77 42.8437L373.574 23.2799H379.838L382.214 63.8284H377.462L376.274 46.0133Z" fill="#565E5E"/>
<path d="M12.094 60.331C12.094 69.4025 19.4381 76.9438 28.5102 76.9438H32.5062C41.4703 76.9438 48.9224 69.5117 48.9224 60.331V56.5056H12.094V60.331Z" fill="#39B54A"/>
<path d="M48.8144 16.5036C48.8144 15.192 48.5984 13.9898 48.3824 12.7875H35.4222V7.86925H46.3303C43.5223 3.16956 38.3383 0 32.5062 0H28.5102C22.6781 0 17.494 3.16956 14.578 7.86925H25.8101V12.7875H12.526C12.31 13.9898 12.094 15.3013 12.094 16.6129V19.0174H25.8101V23.9356H12.094V30.0562H25.8101V34.9745H12.094V41.095H25.8101V46.0133H12.094V51.5873H48.8144V46.0133H35.4222V41.095H48.8144V34.9745H35.4222V30.0562H48.8144V23.9356H35.4222V19.0174H48.8144V16.5036Z" fill="#565E5E"/>
<path d="M55.6184 49.5107H52.8104V60.2217H55.6184V60.3309C55.6184 73.2278 45.2503 83.7201 32.5062 83.7201H28.5102C15.766 83.7201 5.39792 73.2278 5.39792 60.3309V60.2217H7.88195V49.5107H0.213867V60.4402C0.213867 74.8672 10.798 86.8897 24.5141 88.7477C24.9461 88.857 21.0581 107 21.0581 107C21.0581 107 36.2862 88.7477 37.0422 88.6384C50.5424 86.3432 60.8025 74.5393 60.8025 60.3309V49.4014H55.6184V49.5107Z" fill="#565E5E"/>
</svg>
