<svg width="358" height="93" viewBox="0 0 358 93" fill="none" xmlns="http://www.w3.org/2000/svg">
<path fill-rule="evenodd" clip-rule="evenodd" d="M0.81711 23.3005C1.42035 11.0596 10.8712 1.60883 23.112 1.00559C39.6258 0.201263 52.9977 0.201263 69.5114 1.00559C81.7522 1.60883 91.2031 11.0596 91.8063 23.3005C92.6106 39.8142 92.6106 53.1861 91.8063 69.6999C91.2031 81.9407 81.7522 91.3915 69.5114 91.9948C52.9977 92.7991 39.6258 92.7991 23.112 91.9948C10.8712 91.3915 1.42035 81.9407 0.81711 69.6999C0.0127861 53.1861 0.0127861 39.8142 0.81711 23.3005Z" fill="url(#paint0_linear_2390_5721)"/>
<path fill-rule="evenodd" clip-rule="evenodd" d="M70.542 72.691C77.5798 66.181 82.0036 56.8559 82.0036 46.5002C82.0036 26.7942 66.0177 10.8083 46.3117 10.8083C26.6058 10.8083 10.6198 26.7942 10.6198 46.5002C10.6198 56.8559 15.0185 66.181 22.0815 72.691H31.6831C33.0404 72.691 34.6239 73.4953 35.2271 74.4756L46.3117 92.598L57.3963 74.4756C57.9995 73.4953 59.5831 72.691 60.9404 72.691H70.542Z" fill="white"/>
<path fill-rule="evenodd" clip-rule="evenodd" d="M46.3117 63.7429C55.8379 63.7429 63.5544 56.0264 63.5544 46.5002C63.5544 36.974 55.8379 29.2575 46.3117 29.2575C45.2309 29.2575 44.1752 29.358 43.1698 29.534C45.5325 31.3437 47.0406 34.184 47.0406 37.3761C47.0406 42.8053 42.6168 47.2291 37.1877 47.2291C33.9955 47.2291 31.1552 45.6959 29.3455 43.3583C29.1695 44.3888 29.069 45.4445 29.069 46.5002C29.069 56.0264 36.7855 63.7429 46.3117 63.7429Z" fill="#2C3D4F"/>
<path d="M140.92 36.2953V71.8364H134.913V36.2953H120.988V31.218H154.795V36.2953H140.92Z" fill="#2C3D4F"/>
<path d="M176.009 44.7407C177.944 46.9023 178.925 50.924 178.925 56.8559V58.188H158.766C158.817 61.9834 159.47 64.5472 160.802 65.8794C162.134 67.1613 164.346 67.8148 167.564 67.8148C170.354 67.8148 173.169 67.3372 175.959 66.4072L176.939 71.0069C173.495 72.1129 170.127 72.6407 166.91 72.6407C162.235 72.6407 158.741 71.4845 156.353 69.1469C154.016 66.7591 152.86 62.6872 152.86 56.9061C152.86 45.6456 157.283 41.4732 166.382 41.4732C170.881 41.4732 174.074 42.5791 176.009 44.7407ZM158.817 53.714H173.219C173.043 50.6223 172.515 48.5864 171.585 47.6061C170.655 46.6259 168.971 46.098 166.508 46.098C161.154 46.098 159.269 47.9077 158.817 53.7391V53.714Z" fill="#2C3D4F"/>
<path d="M191.291 29.7602V63.9188C191.291 66.7842 191.945 68.418 193.855 70.5545L189.18 73.1183C186.792 70.7305 185.812 68.3426 185.812 64.145V29.7602H191.291Z" fill="#2C3D4F"/>
<path d="M222.283 44.7407C224.218 46.9023 225.198 50.924 225.198 56.8559V58.188H205.04C205.09 61.9834 205.744 64.5472 207.076 65.8794C208.408 67.1613 210.62 67.8148 213.837 67.8148C216.627 67.8148 219.443 67.3372 222.233 66.4072L223.213 71.0069C219.769 72.1129 216.401 72.6407 213.184 72.6407C208.509 72.6407 205.015 71.4845 202.627 69.1469C200.29 66.7591 199.133 62.6872 199.133 56.9061C199.133 45.6456 203.557 41.4732 212.656 41.4732C217.155 41.4732 220.347 42.5791 222.283 44.7407ZM205.09 53.714H219.493C219.317 50.6223 218.789 48.5864 217.859 47.6061C216.929 46.6259 215.245 46.098 212.782 46.098C207.428 46.098 205.543 47.9077 205.09 53.7391V53.714Z" fill="#2C3D4F"/>
<path d="M263.077 53.3621C264.409 55.2975 264.837 57.434 264.837 60.5256C264.837 68.041 261.393 71.8364 254.531 71.8364H233.317V31.218H254.003C257.799 31.218 260.363 32.0223 261.745 33.7315C263.153 35.4156 263.831 37.8034 263.831 40.895C263.831 43.8107 263.303 46.0226 262.197 47.4804C261.142 48.9383 258.93 49.8683 255.562 50.1699C259.282 50.3459 261.845 51.4518 263.077 53.3872V53.3621ZM253.174 47.8826C256.14 47.8826 257.598 45.8969 257.598 41.9507C257.598 38.0045 256.441 36.245 253.174 36.245H239.249V47.9077H253.174V47.8826ZM253.651 66.8848C256.869 66.8848 258.427 64.6226 258.427 59.9977C258.427 55.3729 256.743 52.7086 253.425 52.7086H239.274V66.8596H253.677L253.651 66.8848Z" fill="#2C3D4F"/>
<path d="M275.217 69.2223C273.056 66.8848 271.95 62.8129 271.95 56.9313C271.95 51.0496 273.056 47.0783 275.217 44.8664C277.379 42.6042 280.873 41.4983 285.699 41.4983C290.525 41.4983 294.044 42.6042 296.18 44.8664C298.342 47.0783 299.448 51.0999 299.448 56.9313C299.448 62.7626 298.342 66.9099 296.18 69.2223C294.018 71.4845 290.525 72.6659 285.699 72.6659C280.873 72.6659 277.354 71.5096 275.217 69.2223ZM279.415 65.7788C280.521 67.2367 282.632 67.9907 285.699 67.9907C288.765 67.9907 290.826 67.2367 291.932 65.7788C293.038 64.321 293.616 61.4053 293.616 57.0318C293.616 52.6583 293.089 49.5667 291.983 48.2345C290.877 46.8269 288.765 46.1483 285.699 46.1483C282.632 46.1483 280.521 46.8521 279.415 48.2345C278.309 49.5667 277.781 52.5578 277.781 57.0318C277.781 61.5059 278.309 64.321 279.415 65.7788Z" fill="#2C3D4F"/>
<path d="M326.443 47.6564C323.577 46.6761 320.737 46.1483 317.922 46.1483C313.423 46.1483 311.513 47.028 311.513 50.5218C311.513 53.0353 313.146 54.0156 318.224 54.4178C325.739 55.0713 328.831 57.4591 328.831 63.1145C328.831 70.1775 324.935 72.6659 316.816 72.6659C312.97 72.6659 309.401 72.138 306.209 71.0824L307.541 66.4826C310.155 67.4629 313.197 67.9907 316.64 67.9907C321.315 67.9907 323.175 66.8848 323.175 63.4413C323.175 60.7015 321.717 59.5956 316.414 59.118C309.125 58.5902 305.857 56.5542 305.857 50.9491C305.857 43.9615 309.929 41.448 318.048 41.448C321.265 41.448 324.583 41.9759 327.901 43.0315L327.197 45.1932L326.443 47.6313V47.6564Z" fill="#2C3D4F"/>
<path d="M355.398 47.6564C352.533 46.6761 349.693 46.1483 346.878 46.1483C342.378 46.1483 340.468 47.028 340.468 50.5218C340.468 53.0353 342.102 54.0156 347.179 54.4178C354.695 55.0713 357.786 57.4591 357.786 63.1145C357.786 70.1775 353.89 72.6659 345.772 72.6659C341.926 72.6659 338.382 72.138 335.165 71.0824L336.497 66.4826C339.111 67.4629 342.152 67.9907 345.596 67.9907C350.271 67.9907 352.131 66.8848 352.131 63.4413C352.131 60.7015 350.673 59.5956 345.37 59.118C338.08 58.5902 334.813 56.5542 334.813 50.9491C334.813 43.9615 338.885 41.448 347.003 41.448C350.221 41.448 353.538 41.9759 356.856 43.0315L356.153 45.1932L355.398 47.6313V47.6564Z" fill="#2C3D4F"/>
<defs>
<linearGradient id="paint0_linear_2390_5721" x1="179" y1="92.598" x2="179" y2="0.402344" gradientUnits="userSpaceOnUse">
<stop stop-color="#02B6CD"/>
<stop offset="0.99" stop-color="#09F2AD"/>
<stop offset="1" stop-color="white"/>
</linearGradient>
</defs>
</svg>
