<svg width="149" height="107" viewBox="0 0 149 107" fill="none" xmlns="http://www.w3.org/2000/svg">
<path d="M74.5895 107C52.3836 107.06 32.4874 93.4712 24.4543 72.7335C22.4282 67.4993 21.2883 62.0595 20.8739 56.4622C20.6856 53.9308 20.2356 53.3503 17.7654 52.6561C14.0185 51.6029 10.4658 50.1487 7.39297 47.6832C3.60839 44.6451 1.45343 40.6416 0.559322 35.91C-0.493381 30.3326 0.0974014 24.7991 1.03512 19.2756C1.75278 15.0526 2.80549 10.9095 3.87603 6.76832C4.07626 5.99235 4.33993 5.24631 4.83754 4.60199C5.54925 3.67841 6.3145 3.69238 6.97467 4.66184C7.49408 5.42584 7.6388 6.30753 7.72405 7.20917C8.12649 11.486 8.84614 15.7009 10.4004 19.7224C12.0102 23.8895 14.2722 27.5599 18.2947 29.8319C19.5456 30.5381 20.8779 31.0148 22.2736 31.2961C23.9904 31.6412 25.162 31.0826 26.1612 29.433C27.3785 27.4262 28.4014 25.3038 29.7059 23.3449C34.4084 16.2854 40.336 10.5365 47.6752 6.30154C50.754 4.5242 54.6595 5.58143 56.3883 8.59553C58.228 11.8051 57.1892 15.663 53.9637 17.5581C49.3247 20.2849 45.3121 23.7439 42.0806 28.0625C35.2172 37.2345 32.3823 47.5934 34.1209 58.9157C36.3988 73.7449 44.5013 84.4688 58.121 90.6347C74.536 98.0672 94.0834 93.3914 105.689 79.5517C117.096 65.9453 118.547 46.5042 109.247 31.4397C105.723 25.7287 101.107 21.0828 95.2967 17.7456C90.7568 15.1364 90.8083 9.50316 94.0735 6.88402C96.2919 5.10667 99.0931 4.9431 101.734 6.52496C110.223 11.6156 116.85 18.5195 121.602 27.2427C121.999 27.9708 122.385 28.7049 122.822 29.409C123.942 31.2223 125.216 31.695 127.278 31.1764C131.697 30.0673 134.732 27.2347 136.909 23.3529C139.215 19.2416 140.285 14.7394 140.949 10.1156C141.152 8.70325 141.269 7.27699 141.53 5.87865C141.689 5.03087 142.014 4.04146 142.997 3.95369C144.062 3.85994 144.494 4.85533 144.766 5.69912C145.717 8.63543 146.409 11.6455 147.062 14.6597C148.265 20.2151 149.222 25.8085 148.955 31.5295C148.729 36.3668 147.597 40.9149 144.51 44.7887C142.024 47.9106 138.761 49.9093 135.121 51.3635C133.709 51.928 132.25 52.3489 130.795 52.7858C128.829 53.3762 128.299 54.0605 128.152 56.1151C127.7 62.4545 126.368 68.5864 123.839 74.4271C119.186 85.165 111.856 93.557 101.849 99.5314C93.4589 104.54 84.3355 106.952 74.5876 106.998L74.5895 107Z" fill="#3B393A"/>
<path d="M80.1821 45.2575C80.1821 51.6368 80.1921 58.0181 80.1762 64.3974C80.1702 66.9746 78.4257 69.3564 76.1636 69.9668C73.5785 70.665 71.0766 69.6815 69.6611 67.3895C69.0901 66.464 68.8581 65.4327 68.8581 64.3515C68.8542 51.557 68.8383 38.7645 68.8641 25.97C68.872 22.6786 71.4354 20.1832 74.5935 20.2331C77.7675 20.2849 80.1702 22.8063 80.1742 26.1156C80.1821 32.4969 80.1762 38.8762 80.1762 45.2575H80.1821Z" fill="#35B621"/>
<path d="M41.0002 56.8093C41.0002 52.8895 40.9962 48.9718 41.0002 45.0521C41.0002 43.6298 41.1806 43.4522 42.61 43.4522C46.2399 43.4522 49.8718 43.4483 53.5018 43.4622C55.3713 43.4702 57.1892 43.7774 58.8367 44.7189C62.7897 46.977 63.4043 52.3509 60.0499 55.4528C59.4136 56.0413 59.4453 56.3425 60.1828 56.7335C63.101 58.2794 63.9554 60.8487 63.549 63.9426C63.1506 66.9706 61.178 68.6323 58.4402 69.5299C56.9533 70.0167 55.4109 70.1862 53.8527 70.1902C49.9571 70.1982 46.0635 70.1683 42.1679 70.2122C41.2163 70.2221 40.9685 69.8232 40.9823 68.9654C41.0141 66.9407 40.9962 64.914 40.9962 62.8873C40.9962 60.8606 40.9962 58.8359 40.9962 56.8093H41.0002ZM51.0593 64.5929C51.0593 64.5929 51.0593 64.5769 51.0593 64.5689C52.114 64.5689 53.1707 64.5789 54.2254 64.563C54.5525 64.557 54.8816 64.4931 55.2067 64.4333C56.874 64.1281 57.7106 62.8534 57.2744 61.2397C56.9037 59.8712 55.7678 59.5182 54.5902 59.4663C52.3519 59.3666 50.1058 59.4065 47.8636 59.3745C47.2886 59.3666 47.1181 59.6797 47.1181 60.1864C47.1201 61.3474 47.136 62.5103 47.1122 63.6713C47.0983 64.3774 47.4591 64.6028 48.0915 64.5949C49.0808 64.5829 50.0701 64.5929 51.0613 64.5929H51.0593ZM50.4943 49.1633V49.0855C49.6359 49.0855 48.7775 49.0975 47.9191 49.0815C47.3977 49.0715 47.1122 49.257 47.1201 49.8255C47.134 50.9885 47.1241 52.1515 47.1241 53.3124C47.1241 53.7971 47.356 54.0664 47.8457 54.0545C49.7905 54.0046 51.7413 54.224 53.6782 53.8969C55.175 53.6435 55.97 52.7798 55.9442 51.4712C55.9184 50.1766 55.0937 49.3249 53.5612 49.1832C52.5482 49.0895 51.5193 49.1653 50.4963 49.1653L50.4943 49.1633Z" fill="#3B393A"/>
<path d="M96.9659 70.1962C94.0279 70.1962 91.0898 70.1982 88.1498 70.1942C86.8691 70.1922 86.7779 69.9788 86.6312 68.6802C86.3735 66.3922 87.1982 64.6427 88.691 62.9392C92.1346 59.0135 95.4136 54.9441 98.7601 50.9326C98.8651 50.805 98.9801 50.6833 99.0733 50.5477C99.2577 50.2843 99.565 50.045 99.3945 49.672C99.22 49.291 98.8354 49.3767 98.5202 49.3747C95.8458 49.3667 93.1714 49.3687 90.497 49.3687C89.8369 49.3687 89.1767 49.3867 88.5165 49.3648C87.4817 49.3308 87.0872 48.9319 87.0634 47.8966C87.0455 47.0668 87.0495 46.235 87.0614 45.4051C87.0792 44.1664 87.4202 43.8093 88.6692 43.8013C91.2782 43.7854 93.8851 43.7953 96.4941 43.7953C99.7632 43.7953 103.03 43.7914 106.299 43.7953C107.733 43.7973 107.945 44.1225 108.086 45.5507C108.29 47.6133 107.61 49.1932 106.244 50.7511C102.739 54.7506 99.3965 58.8978 95.9905 62.9851C95.8418 63.1626 95.711 63.3541 95.5603 63.5297C95.3561 63.767 95.2055 64.0363 95.3244 64.3435C95.4652 64.7086 95.826 64.6108 96.1015 64.6128C99.4698 64.6268 102.836 64.6268 106.204 64.6308C107.328 64.6308 107.586 64.8841 107.602 66.0391C107.614 66.9028 107.612 67.7666 107.604 68.6303C107.594 69.8272 107.257 70.1882 106.075 70.1942C103.038 70.2082 100.001 70.1982 96.9639 70.1982L96.9659 70.1962Z" fill="#3B393A"/>
<path d="M81.3558 6.90396C81.3419 10.6342 78.2512 13.7361 74.5519 13.7401C70.7534 13.7421 67.6905 10.6661 67.6984 6.85609C67.7083 3.06402 70.803 -0.0139161 74.5935 4.73229e-05C78.2631 0.0140108 81.3697 3.18371 81.3538 6.90396H81.3558Z" fill="#35B621"/>
</svg>
