<svg width="480" height="83" viewBox="0 0 480 83" fill="none" xmlns="http://www.w3.org/2000/svg">
<path d="M145.771 51.4942C145.771 57.7952 139.843 62.358 131.501 62.358H111.963V23.2481H130.842C138.965 23.2481 144.673 27.5937 144.673 33.6775C144.673 37.8057 142.477 40.413 139.185 41.934C142.697 43.2377 145.771 46.7141 145.771 51.4942ZM120.524 30.4183V38.8921H130.623C133.696 38.8921 135.672 37.1538 135.672 34.7639C135.672 32.3738 133.477 30.4183 130.623 30.4183H120.524ZM131.501 55.1879C134.794 55.1879 137.209 53.2324 137.209 50.4078C137.209 47.5832 135.014 45.6277 131.501 45.6277H120.524V55.1879H131.501Z" fill="black"/>
<path d="M178.043 62.1407L164.432 46.7141H162.237V62.1407H153.455V23.2481H162.237V38.2402H164.432L177.604 23.2481H187.922L171.456 41.934L189.458 62.1407H178.043Z" fill="black"/>
<path d="M189.46 42.8033C189.46 31.0703 198.241 22.5964 210.534 22.5964C222.828 22.5964 231.61 31.0703 231.61 42.8033C231.61 54.5362 222.828 63.01 210.534 63.01C198.241 63.01 189.46 54.5362 189.46 42.8033ZM222.39 42.8033C222.39 35.4159 217.559 30.4184 210.534 30.4184C203.509 30.4184 198.679 35.4159 198.679 42.8033C198.679 50.1907 203.509 55.1881 210.534 55.1881C217.559 55.1881 222.39 50.1907 222.39 42.8033Z" fill="black"/>
<path d="M265.198 23.2481H273.979V62.1407H265.198V46.4968H247.634V62.1407H238.853V23.2481H247.634V38.6748H265.198V23.2481Z" fill="black"/>
<path d="M292.859 62.1407V31.0701H279.248V23.2481H315.032V31.0701H301.421V62.1407H292.859Z" fill="black"/>
<path d="M352.793 40.4132V62.1409H346.426L344.67 56.0572C342.694 59.3164 338.523 63.01 332.156 63.01C324.253 63.01 318.545 57.7954 318.545 50.6253C318.545 43.4551 324.253 38.4577 335.889 38.4577H344.45C344.012 33.4603 341.377 29.9839 336.547 29.9839C332.595 29.9839 329.961 32.1567 328.644 34.5467L320.741 33.2431C322.716 26.5075 329.522 22.5964 336.986 22.5964C346.646 22.5964 352.793 29.1147 352.793 40.4132ZM344.23 45.1933H336.108C329.522 45.1933 327.326 47.3661 327.326 50.1907C327.326 53.4499 329.961 55.6226 334.351 55.6226C340.06 55.6226 344.23 51.4944 344.23 45.1933Z" fill="black"/>
<path d="M386.6 62.1407L372.989 46.7141H370.794V62.1407H362.013V23.2481H370.794V38.2402H372.989L386.161 23.2481H396.479L380.014 41.934L398.015 62.1407H386.6Z" fill="black"/>
<path d="M413.822 62.1407V31.0701H400.211V23.2481H435.996V31.0701H422.384V62.1407H413.822Z" fill="black"/>
<path d="M479.902 45.1933H448.29C449.168 51.2771 453.559 55.1881 460.144 55.1881C464.755 55.1881 468.267 53.2326 470.243 50.408L478.366 51.7117C475.512 59.0991 467.828 63.01 459.486 63.01C447.631 63.01 439.069 54.5362 439.069 42.8033C439.069 31.0703 447.631 22.5964 459.486 22.5964C471.341 22.5964 479.902 31.0703 479.902 42.3687C480.122 43.4551 479.902 44.3242 479.902 45.1933ZM448.948 38.4577H470.683C469.145 33.6776 465.194 30.2011 459.706 30.2011C454.437 29.9839 450.266 33.4603 448.948 38.4577Z" fill="black"/>
<path fill-rule="evenodd" clip-rule="evenodd" d="M5.89504 5.83443C0 11.6689 0 21.0593 0 39.84V43.16C0 61.9407 0 71.3311 5.89504 77.1656C11.7901 83 21.278 83 40.2538 83H43.6083C62.5841 83 72.072 83 77.9671 77.1656C83.8621 71.3311 83.8621 61.9407 83.8621 43.16V39.84C83.8621 21.0593 83.8621 11.6689 77.9671 5.83443C72.072 0 62.5841 0 43.6083 0H40.2538C21.278 0 11.7901 0 5.89504 5.83443ZM14.1519 25.246C14.6061 46.826 25.5081 59.7947 44.6217 59.7947H45.7051V47.4484C52.7286 48.1401 58.0395 53.2239 60.1709 59.7947H70.0949C67.3694 49.9731 60.2058 44.5434 55.7332 42.4684C60.2058 39.9093 66.4956 33.6843 67.998 25.246H58.9826C57.0258 32.0935 51.226 38.3184 45.7051 38.9063V25.246H36.6896V49.1776C31.0988 47.7943 24.0406 41.0852 23.7261 25.246H14.1519Z" fill="#0077FF"/>
</svg>
