<svg width="395" height="49" viewBox="0 0 395 49" fill="none" xmlns="http://www.w3.org/2000/svg">
<path d="M34.8501 44.3308C31.4545 47.2141 27.545 48.6559 23.1216 48.6559C20.0388 48.6559 17.0899 48.1152 14.2751 47.034C11.4603 45.9076 9.00294 44.2857 6.903 42.1683C4.80305 40.0508 3.12757 37.4604 1.87654 34.3969C0.625515 31.3334 0 27.8419 0 23.9224C0 20.5435 0.625515 17.4124 1.87654 14.5292C3.12757 11.6008 4.84773 9.07791 7.03703 6.96048C9.22633 4.798 11.7954 3.10857 14.7443 1.89216C17.7378 0.630723 20.9547 0 24.395 0C26.5396 0 28.5949 0.247784 30.5608 0.74335C32.5268 1.19387 34.3362 1.89218 35.9893 2.83825C37.6871 3.73929 39.2064 4.84305 40.5467 6.14955C41.887 7.411 42.9817 8.85265 43.8307 10.4745L34.1128 17.9756C33.1747 16.0834 31.7672 14.5742 29.8907 13.4479C28.0141 12.2766 26.0259 11.6909 23.9259 11.6909C22.3621 11.6909 20.9323 12.0063 19.6367 12.637C18.341 13.2677 17.2239 14.1462 16.2857 15.2725C15.3474 16.3988 14.6102 17.7504 14.0741 19.3272C13.5379 20.8589 13.2698 22.5484 13.2698 24.3955C13.2698 26.2876 13.5379 27.9997 14.0741 29.5314C14.6102 31.0631 15.3474 32.3922 16.2857 33.5185C17.2687 34.5996 18.4303 35.4556 19.7707 36.0864C21.1111 36.672 22.6079 36.9648 24.261 36.9648C28.0587 36.9648 31.4098 35.388 34.3139 32.2344H26.0705V22.7737H45.6401V48.3179H34.8501V44.3308Z" fill="#013A4C"/>
<path d="M84.426 37.1063V48.5944H50.5141V0.614492H83.8228V12.1027H63.5829V18.8604H80.874V29.5376H63.5829V37.1063H84.426Z" fill="#013A4C"/>
<path d="M128.561 12.1027H114.889V48.5944H101.821V12.1027H88.0817V0.614492H128.561V12.1027Z" fill="#013A4C"/>
<path d="M130.389 23.8549C130.389 20.9265 130.925 18.0432 131.998 15.2049C133.115 12.3667 134.723 9.82127 136.823 7.56868C138.923 5.31609 141.47 3.4915 144.463 2.09491C147.457 0.698302 150.875 0 154.717 0C159.319 0 163.296 0.968611 166.647 2.90584C170.042 4.798 172.567 7.3209 174.22 10.4745L164.234 17.6377C163.787 16.4664 163.184 15.4978 162.424 14.7319C161.71 13.966 160.906 13.3578 160.012 12.9073C159.118 12.4568 158.18 12.1414 157.197 11.9612C156.259 11.781 155.343 11.6909 154.449 11.6909C152.573 11.6909 150.942 12.0738 149.557 12.8397C148.216 13.5605 147.099 14.5292 146.206 15.7456C145.357 16.9169 144.709 18.2684 144.262 19.8002C143.86 21.2868 143.659 22.7737 143.659 24.2603C143.659 25.9273 143.905 27.5266 144.396 29.0584C144.888 30.5901 145.603 31.9417 146.541 33.1129C147.479 34.2844 148.619 35.2304 149.959 35.9512C151.344 36.6271 152.885 36.9648 154.583 36.9648C155.477 36.9648 156.393 36.8748 157.331 36.6945C158.27 36.4693 159.163 36.1315 160.012 35.6809C160.906 35.1853 161.687 34.5771 162.358 33.8563C163.072 33.0904 163.631 32.1669 164.033 31.0857L174.69 37.5055C173.975 39.2626 172.88 40.8392 171.405 42.2359C169.976 43.6326 168.323 44.8038 166.446 45.75C164.613 46.696 162.625 47.4168 160.481 47.9124C158.381 48.4079 156.326 48.6559 154.315 48.6559C150.786 48.6559 147.546 47.9574 144.597 46.561C141.693 45.1192 139.169 43.227 137.024 40.8843C134.924 38.5416 133.294 35.8836 132.132 32.9103C130.97 29.9368 130.389 26.9184 130.389 23.8549Z" fill="#22C2B5"/>
<path d="M199.359 48.6559C195.74 48.6559 192.455 47.9574 189.508 46.561C186.558 45.1643 184.034 43.3397 181.933 41.0872C179.833 38.7894 178.203 36.1764 177.041 33.2482C175.879 30.3198 175.299 27.3012 175.299 24.1927C175.299 21.0391 175.902 17.9981 177.109 15.0698C178.315 12.1414 179.99 9.57347 182.134 7.36595C184.324 5.11336 186.894 3.33382 189.841 2.02732C192.836 0.675775 196.097 0 199.628 0C203.246 0 206.529 0.698302 209.479 2.09491C212.428 3.4915 214.951 5.33863 217.051 7.63625C219.152 9.93388 220.761 12.5469 221.877 15.4752C223.039 18.4035 223.619 21.3995 223.619 24.463C223.619 27.6166 223.017 30.6577 221.811 33.586C220.604 36.4693 218.928 39.0372 216.784 41.2899C214.639 43.4973 212.07 45.2768 209.077 46.6284C206.128 47.98 202.888 48.6559 199.359 48.6559ZM188.569 24.3279C188.569 25.9498 188.793 27.5266 189.239 29.0584C189.686 30.545 190.355 31.8741 191.25 33.0453C192.143 34.2167 193.261 35.1628 194.601 35.8836C195.985 36.6045 197.617 36.9648 199.493 36.9648C201.37 36.9648 203 36.6045 204.386 35.8836C205.771 35.1177 206.888 34.1491 207.737 32.9779C208.63 31.7614 209.278 30.3874 209.68 28.8555C210.127 27.3238 210.351 25.7695 210.351 24.1927C210.351 22.571 210.127 21.0165 209.68 19.5299C209.233 17.9981 208.541 16.6691 207.602 15.5428C206.709 14.3715 205.57 13.4479 204.185 12.7722C202.844 12.0513 201.258 11.6909 199.425 11.6909C197.549 11.6909 195.918 12.0513 194.533 12.7722C193.193 13.493 192.076 14.4616 191.183 15.678C190.289 16.8492 189.619 18.2008 189.172 19.7326C188.77 21.2194 188.569 22.7511 188.569 24.3279Z" fill="#22C2B5"/>
<path d="M249.33 37.3091C250.849 37.3091 252.145 36.9712 253.216 36.2953C254.289 35.6196 255.161 34.7411 255.83 33.66C256.501 32.5336 256.992 31.2496 257.305 29.8079C257.618 28.3663 257.775 26.8571 257.775 25.2803V0.614492H270.843V25.2803C270.843 28.6141 270.418 31.7452 269.571 34.6736C268.722 37.5569 267.402 40.0572 265.615 42.1747C263.829 44.2921 261.572 45.9589 258.846 47.1754C256.166 48.3918 252.994 49 249.33 49C245.532 49 242.27 48.3692 239.546 47.1078C236.864 45.8013 234.653 44.0669 232.91 41.9043C231.168 39.7418 229.894 37.2415 229.09 34.4033C228.287 31.52 227.885 28.4789 227.885 25.2803V0.614492H240.952V25.2803C240.952 26.8571 241.11 28.3889 241.422 29.8755C241.735 31.3173 242.226 32.6012 242.895 33.7274C243.566 34.8087 244.415 35.6872 245.443 36.3629C246.516 36.9937 247.81 37.3091 249.33 37.3091Z" fill="#22C2B5"/>
<path d="M275.717 48.5944V0.614492H297.565C299.889 0.614492 302.033 1.11006 304 2.10119C305.966 3.04728 307.641 4.30872 309.025 5.88553C310.456 7.41728 311.573 9.19683 312.377 11.2241C313.182 13.2064 313.584 15.2112 313.584 17.2385C313.584 20.0318 312.979 22.6448 311.774 25.0775C310.568 27.4652 308.892 29.4251 306.747 30.9568L316.801 48.5944H302.056L293.679 33.8626H288.787V48.5944H275.717ZM288.787 22.3745H297.03C297.834 22.3745 298.571 21.924 299.241 21.0229C299.955 20.1218 300.313 18.8604 300.313 17.2385C300.313 15.5716 299.912 14.3102 299.108 13.4542C298.302 12.5532 297.499 12.1027 296.695 12.1027H288.787V22.3745Z" fill="#22C2B5"/>
<path d="M395 37.1063V48.5944H361.088V0.614492H394.397V12.1027H374.157V18.8604H391.448V29.5376H374.157V37.1063H395Z" fill="#22C2B5"/>
<path d="M350.053 16.0834C348.713 15.2725 347.328 14.5517 345.898 13.921C344.693 13.3803 343.33 12.8848 341.81 12.4342C340.335 11.9387 338.883 11.6909 337.454 11.6909C336.292 11.6909 335.354 11.8711 334.639 12.2315C333.97 12.5919 333.634 13.2001 333.634 14.0561C333.634 14.6868 333.835 15.2049 334.237 15.6104C334.639 16.0159 335.221 16.3988 335.979 16.7593C336.739 17.0746 337.655 17.3899 338.728 17.7053C339.844 18.0207 341.095 18.4035 342.481 18.8542C344.67 19.5299 346.636 20.2732 348.378 21.0841C350.165 21.8951 351.685 22.8637 352.936 23.99C354.187 25.0713 355.147 26.4003 355.818 27.9771C356.487 29.5539 356.822 31.4685 356.822 33.7212C356.822 36.6045 356.286 39.0372 355.215 41.0196C354.187 42.9567 352.802 44.511 351.06 45.6824C349.361 46.8536 347.418 47.7097 345.229 48.2503C343.084 48.7459 340.917 48.9936 338.728 48.9936C336.986 48.9936 335.198 48.8586 333.365 48.5882C331.534 48.3179 329.703 47.9349 327.87 47.4394C326.083 46.9438 324.341 46.3581 322.642 45.6824C320.99 45.0065 319.448 44.2407 318.019 43.3848L323.649 31.829C325.213 32.8201 326.843 33.6987 328.541 34.4645C329.97 35.1402 331.58 35.7485 333.365 36.2891C335.198 36.8297 337.052 37.1001 338.929 37.1001C340.358 37.1001 341.342 36.9197 341.878 36.5594C342.458 36.1539 342.748 35.6358 342.748 35.0052C342.748 34.3293 342.458 33.7663 341.878 33.3156C341.342 32.8201 340.582 32.3922 339.6 32.0317C338.616 31.6714 337.477 31.3109 336.18 30.9504C334.929 30.5901 333.589 30.162 332.16 29.6665C330.06 28.9457 328.249 28.1798 326.731 27.3689C325.213 26.5128 323.962 25.5668 322.978 24.5306C321.994 23.4494 321.259 22.233 320.766 20.8814C320.32 19.5299 320.097 17.9756 320.097 16.2186C320.097 13.5605 320.565 11.2179 321.503 9.19054C322.487 7.1632 323.804 5.47377 325.457 4.12223C327.11 2.77068 328.987 1.75702 331.087 1.08124C333.233 0.360412 335.488 0 337.856 0C339.6 0 341.296 0.180207 342.949 0.54062C344.604 0.855981 346.189 1.28397 347.709 1.82459C349.272 2.32016 350.724 2.8833 352.065 3.51402C353.405 4.0997 354.61 4.66284 355.683 5.20346L350.053 16.0834Z" fill="#22C2B5"/>
</svg>
