<svg width="308" height="69" viewBox="0 0 308 69" fill="none" xmlns="http://www.w3.org/2000/svg">
<path d="M142.575 62.7684C140.634 61.4539 139.252 59.4092 138.427 56.6343C137.611 53.8593 137.198 50.1756 137.198 45.5669V39.2948C137.198 34.6455 137.667 30.905 138.605 28.0895C139.543 25.274 141.006 23.213 142.995 21.9229C144.984 20.6328 147.596 19.9837 150.83 19.9837C154.064 19.9837 156.562 20.6409 158.487 21.9554C160.403 23.2698 161.81 25.3308 162.699 28.122C163.588 30.9213 164.033 34.6455 164.033 39.2948V45.5669C164.033 50.1756 163.597 53.8755 162.731 56.6667C161.866 59.466 160.459 61.5107 158.519 62.8008C156.578 64.091 153.943 64.7401 150.62 64.7401C147.297 64.7401 144.523 64.0828 142.575 62.7684ZM153.466 56.0014C153.999 54.5896 154.274 52.2933 154.274 49.0964V35.6354C154.274 32.5359 154.007 30.264 153.466 28.836C152.924 27.3998 151.978 26.6858 150.62 26.6858C149.261 26.6858 148.38 27.3998 147.846 28.836C147.305 30.2721 147.038 32.5359 147.038 35.6354V49.0964C147.038 52.2933 147.297 54.5977 147.814 56.0014C148.332 57.4132 149.261 58.1191 150.62 58.1191C151.978 58.1191 152.924 57.4132 153.466 56.0014Z" fill="black"/>
<path d="M291.765 45.6736V47.8562C291.765 50.6312 291.846 52.7083 292.007 54.0958C292.169 55.4833 292.509 56.4894 293.026 57.1304C293.544 57.7633 294.336 58.0797 295.411 58.0797C296.859 58.0797 297.861 57.5118 298.395 56.3839C298.936 55.2561 299.227 53.3737 299.276 50.7448L307.636 51.2397C307.685 51.613 307.709 52.1322 307.709 52.7895C307.709 56.7815 306.617 59.7674 304.443 61.7391C302.268 63.7108 299.187 64.7007 295.209 64.7007C290.431 64.7007 287.083 63.1996 285.167 60.1894C283.243 57.1791 282.289 52.5298 282.289 46.2334V38.6875C282.289 32.2045 283.283 27.4659 285.272 24.48C287.261 21.4941 290.665 20.0011 295.492 20.0011C298.815 20.0011 301.37 20.6097 303.149 21.8349C304.928 23.0601 306.181 24.9587 306.908 27.5471C307.636 30.1354 308 33.7055 308 38.2656V45.6654H291.773L291.765 45.6736ZM292.994 27.4903C292.501 28.0988 292.177 29.0968 292.007 30.4843C291.846 31.8718 291.765 33.9733 291.765 36.7969V39.8965H298.856V36.7969C298.856 34.022 298.759 31.9205 298.573 30.4843C298.387 29.0481 298.047 28.042 297.554 27.4497C297.061 26.8655 296.301 26.5653 295.274 26.5653C294.247 26.5653 293.479 26.8736 292.994 27.4822V27.4903Z" fill="black"/>
<path d="M118.966 44.8692L107.938 4.90005H117.56L121.424 23.0184C122.411 27.4811 123.13 31.2865 123.599 34.4347H123.882C124.206 32.179 124.933 28.398 126.057 23.0833L130.059 4.90005H139.681L128.515 44.8692V64.0424H118.958V44.8692H118.966Z" fill="black"/>
<path d="M195.331 20.8284V64.0431H187.747L186.906 58.7528H186.696C184.634 62.7449 181.546 64.7409 177.422 64.7409C174.568 64.7409 172.458 63.7997 171.1 61.9254C169.741 60.0429 169.062 57.1057 169.062 53.1136V20.8284H178.756V52.5457C178.756 54.4768 178.967 55.848 179.387 56.6675C179.808 57.487 180.511 57.9009 181.497 57.9009C182.338 57.9009 183.147 57.6412 183.923 57.1219C184.699 56.6026 185.265 55.9454 185.645 55.1502V20.8284H195.339H195.331Z" fill="black"/>
<path d="M245.048 20.8284V64.0431H237.464L236.623 58.7528H236.413C234.351 62.7449 231.262 64.7409 227.139 64.7409C224.285 64.7409 222.174 63.7997 220.816 61.9254C219.458 60.0429 218.779 57.1057 218.779 53.1136V20.8284H228.473V52.5457C228.473 54.4768 228.683 55.848 229.104 56.6675C229.524 57.487 230.227 57.9009 231.214 57.9009C232.055 57.9009 232.863 57.6412 233.639 57.1219C234.416 56.6026 234.981 55.9454 235.361 55.1502V20.8284H245.056H245.048Z" fill="black"/>
<path d="M221.666 12.7219H212.044V64.0424H202.56V12.7219H192.939V4.90005H221.666V12.7219Z" fill="black"/>
<path d="M277.13 27.7332C276.54 25.007 275.594 23.0353 274.284 21.8101C272.975 20.5849 271.172 19.9763 268.875 19.9763C267.097 19.9763 265.431 20.4794 263.887 21.4936C262.343 22.5079 261.146 23.8305 260.305 25.4776H260.232V2.70992H250.894V64.0349H258.898L259.885 59.9455H260.095C260.847 61.406 261.971 62.5501 263.466 63.402C264.962 64.2459 266.628 64.6678 268.455 64.6678C271.73 64.6678 274.147 63.1505 275.691 60.124C277.236 57.0894 278.012 52.359 278.012 45.9165V39.0765C278.012 34.2406 277.721 30.4514 277.13 27.7251V27.7332ZM268.245 45.3567C268.245 48.5049 268.115 50.9715 267.857 52.7566C267.598 54.5416 267.169 55.8155 266.555 56.562C265.949 57.3166 265.124 57.6898 264.097 57.6898C263.297 57.6898 262.561 57.5032 261.882 57.1219C261.203 56.7486 260.653 56.1806 260.232 55.4342V30.9058C260.556 29.7293 261.122 28.7718 261.922 28.0172C262.714 27.2626 263.588 26.8894 264.517 26.8894C265.504 26.8894 266.264 27.2789 266.798 28.0497C267.339 28.8286 267.711 30.1269 267.921 31.9606C268.132 33.7943 268.237 36.3989 268.237 39.7824V45.3486L268.245 45.3567Z" fill="black"/>
<path fill-rule="evenodd" clip-rule="evenodd" d="M87.4912 2.06017C91.7186 3.19644 95.0427 6.53234 96.1734 10.7747C98.22 18.4592 98.22 34.5 98.22 34.5C98.22 34.5 98.22 50.5408 96.1655 58.2253C95.0333 62.4692 91.7107 65.8036 87.4818 66.9398C79.826 69 49.11 69 49.11 69C49.11 69 18.3939 69 10.7366 66.9398C6.50926 65.8036 3.18515 62.4692 2.0529 58.2253C0 50.5408 0 34.5 0 34.5C0 34.5 0 18.4592 2.0529 10.7747C3.18515 6.53234 6.50926 3.19644 10.7366 2.06017C18.3939 0 49.11 0 49.11 0C49.11 0 79.826 0 87.4912 2.06017ZM64.8115 34.5016L39.2861 19.7175V49.2841L64.8115 34.5016Z" fill="#FF0000"/>
</svg>
