<svg width="247" height="97" viewBox="0 0 247 97" fill="none" xmlns="http://www.w3.org/2000/svg">
<g clip-path="url(#clip0_1775_4146)">
<path d="M133.493 43.8375H136.906V34.9478H133.757V14.135H128.949V34.9478H120.483V14.135H115.675V39.3447H132.984L133.493 43.8375Z" fill="#0B0A0A"/>
<path d="M146.409 24.5799C147.446 24.5799 148.2 24.9254 148.671 25.6166C149.143 26.327 149.35 27.3254 149.237 28.6118H142.713C142.845 27.383 143.185 26.4039 143.75 25.6743C144.316 24.9447 145.221 24.5799 146.409 24.5799ZM151.424 34.7366C150.17 35.6587 148.653 36.1374 147.106 36.0999C145.56 36.0999 144.467 35.7158 143.75 34.9478C143.071 34.1798 142.694 33.0279 142.619 31.5303H153.14C153.349 30.4026 153.469 29.2598 153.498 28.1126C153.498 26.711 153.31 25.559 152.895 24.6182C152.556 23.7884 152.035 23.0488 151.371 22.4564C150.708 21.8639 149.92 21.4343 149.067 21.2006C148.238 20.951 147.37 20.8359 146.484 20.8359C143.807 20.8359 141.733 21.623 140.262 23.2166C138.791 24.791 138.056 27.1719 138.056 30.3399C138.056 33.2967 138.716 35.6199 140.017 37.3095C141.337 38.9991 143.411 39.8438 146.239 39.8438C147.597 39.8438 148.879 39.6519 150.067 39.2679C151.273 38.8647 152.235 38.3654 152.933 37.7894L151.424 34.7366Z" fill="#0B0A0A"/>
<path d="M163.906 35.8887C163.265 35.8887 162.775 35.8118 162.379 35.6582C162.002 35.4854 161.625 35.2743 161.304 35.0247V27.5366C161.587 26.615 161.983 25.943 162.473 25.4822C163.061 24.9918 163.808 24.7449 164.566 24.791C165.697 24.791 166.546 25.2326 167.055 26.0966C167.583 26.9606 167.828 28.1894 167.828 29.7638C167.828 31.9526 167.507 33.5079 166.848 34.4678C166.188 35.4278 165.207 35.8887 163.906 35.8887ZM172.014 34.0263C172.353 32.7975 172.542 31.4151 172.542 29.879C172.542 26.7111 171.976 24.4071 170.883 22.9671C169.789 21.5463 168.13 20.8359 165.943 20.8359C164.736 20.8359 163.736 21.0471 162.907 21.4887C162.077 21.9111 161.342 22.583 160.739 23.5047H160.607L160.079 21.335H156.741V46.5447H161.304V39.1526C162.291 39.675 163.399 39.914 164.51 39.8438C165.792 39.8438 166.923 39.6134 167.903 39.1526C168.903 38.711 169.751 38.0391 170.449 37.1751C171.128 36.3111 171.656 35.2551 172.014 34.0263Z" fill="#0B0A0A"/>
<path d="M183.195 24.5799C184.232 24.5799 184.986 24.9254 185.457 25.6166C185.929 26.327 186.136 27.3254 186.023 28.6118H179.499C179.631 27.383 179.971 26.4039 180.536 25.6743C181.102 24.9447 182.007 24.5799 183.195 24.5799ZM186.853 39.2487C188.059 38.8647 189.021 38.3654 189.719 37.7894L188.21 34.7175C186.957 35.645 185.441 36.1304 183.892 36.0999C182.346 36.0999 181.253 35.7158 180.536 34.9478C179.857 34.1798 179.48 33.0279 179.405 31.5303H189.926C190.136 30.4027 190.255 29.2598 190.284 28.1126C190.284 26.711 190.096 25.559 189.681 24.6182C189.343 23.7876 188.822 23.0473 188.159 22.4547C187.495 21.862 186.706 21.4329 185.853 21.2006C185.024 20.951 184.156 20.8359 183.27 20.8359C180.593 20.8359 178.519 21.623 177.048 23.2166C175.577 24.791 174.842 27.1719 174.842 30.3399C174.842 33.2967 175.502 35.6199 176.803 37.3095C178.123 38.9991 180.197 39.8438 183.025 39.8438C184.383 39.8438 185.665 39.6519 186.853 39.2679V39.2487Z" fill="#0B0A0A"/>
<path d="M201.182 25.7126C202.37 25.7126 203.219 26.1159 203.728 26.9607C204.237 27.8055 204.501 28.9959 204.501 30.5703C204.501 32.2983 204.237 33.6039 203.671 34.5255C203.125 35.4278 202.219 35.8887 200.956 35.8887C199.749 35.8887 198.844 35.3895 198.26 34.3719C197.635 33.2085 197.329 31.8955 197.374 30.5703C197.374 29.0535 197.694 27.8823 198.316 26.9991C198.939 26.1351 199.881 25.7126 201.164 25.7126H201.182ZM207.065 37.3287C208.498 35.6583 209.215 33.2007 209.215 29.9559C209.215 27.1335 208.574 25.0791 207.329 23.7351C206.668 23.0594 205.875 22.5325 205.001 22.1885C204.128 21.8446 203.193 21.6912 202.257 21.7382C200.937 21.7382 199.825 21.9879 198.901 22.4487C197.916 22.9783 197.089 23.7674 196.506 24.7335H196.393C196.487 23.6855 196.709 22.6536 197.053 21.6615C197.336 20.8935 197.732 20.2982 198.222 19.8566C198.712 19.4342 199.297 19.1271 199.976 18.9735C200.654 18.8007 201.446 18.6855 202.333 18.6471C203.803 18.5127 204.972 18.3782 205.84 18.2054C206.707 18.0518 207.367 17.7446 207.838 17.3222L207.65 13.175C207.235 13.5782 206.594 13.8855 205.727 14.0583C204.859 14.2503 203.841 14.3847 202.615 14.4999C201.673 14.5959 200.786 14.7303 199.938 14.8839C199.108 15.0183 198.316 15.2679 197.581 15.6135C195.967 16.3928 194.701 17.7643 194.036 19.4535C193.603 20.4519 193.263 21.6807 193.037 23.1399C192.792 24.6183 192.679 26.3847 192.679 28.4391C192.679 32.3559 193.395 35.2359 194.809 37.0791C196.242 38.9223 198.316 39.8438 201.032 39.8438C202.157 39.9133 203.282 39.7251 204.327 39.2932C205.371 38.8612 206.307 38.1965 207.065 37.3479V37.3287Z" fill="#0B0A0A"/>
<path d="M219.528 35.8887C218.887 35.8887 218.397 35.8118 218.001 35.6582C217.624 35.4854 217.247 35.2743 216.926 35.0247V27.5367C217.209 26.6151 217.605 25.9431 218.095 25.4823C218.683 24.9918 219.43 24.7449 220.188 24.791C221.32 24.791 222.168 25.2327 222.677 26.0967C223.186 26.9607 223.45 28.1895 223.45 29.7639C223.45 31.9527 223.13 33.5079 222.47 34.4679C221.81 35.4279 220.829 35.8887 219.528 35.8887ZM218.529 21.4887C217.699 21.9111 216.983 22.5831 216.361 23.5047H216.229L215.701 21.3351H212.363V46.5447H216.926V39.1526C217.914 39.6741 219.022 39.913 220.132 39.8439C221.414 39.8439 222.545 39.6134 223.526 39.1526C224.544 38.711 225.373 38.0391 226.071 37.1751C226.75 36.3111 227.278 35.2551 227.636 34.0263C227.975 32.7975 228.164 31.4151 228.164 29.8791C228.164 26.7111 227.598 24.4071 226.505 22.9671C225.411 21.5463 223.752 20.8359 221.565 20.8359C220.516 20.8047 219.476 21.0285 218.529 21.4887Z" fill="#0B0A0A"/>
<path d="M238.742 35.8887C238.119 35.8887 237.573 35.7543 237.12 35.4663C236.656 35.1887 236.272 34.7913 236.008 34.3143C235.711 33.7554 235.501 33.153 235.385 32.5287C235.235 31.8091 235.159 31.0755 235.159 30.3399C235.159 28.3815 235.48 26.9607 236.102 26.0967C236.743 25.2327 237.61 24.791 238.742 24.791C240.043 24.791 240.948 25.3095 241.476 26.3271C242.022 27.3447 242.286 28.6887 242.286 30.3591C242.286 32.2599 242.003 33.6615 241.419 34.5447C240.834 35.4471 239.948 35.8887 238.742 35.8887ZM244.964 23.4471C244.27 22.6097 243.391 21.9517 242.399 21.5271C241.24 21.0433 239.994 20.808 238.742 20.8359C236.121 20.8359 234.084 21.6615 232.633 23.2935C231.181 24.9447 230.464 27.2871 230.464 30.3399C230.464 31.7607 230.634 33.0471 230.973 34.2375C231.313 35.3895 231.822 36.4071 232.519 37.2327C233.217 38.0583 234.066 38.711 235.103 39.1526C236.121 39.6134 237.346 39.8439 238.742 39.8439C239.871 39.9132 241.003 39.7291 242.055 39.3044C243.107 38.8798 244.055 38.225 244.832 37.3863C246.284 35.7351 247 33.3927 247 30.3399C247 28.9191 246.811 27.6327 246.491 26.4615C246.193 25.3596 245.673 24.3331 244.964 23.4471Z" fill="#0B0A0A"/>
<path d="M134.7 52.4775H115.543V56.8743H122.746V77.6871H127.554V56.8743H134.719L134.7 52.4775Z" fill="#0B0A0A"/>
<path d="M141.978 72.1383C141.714 72.6183 141.318 73.0599 140.771 73.4823C140.243 73.9047 139.508 74.1159 138.603 74.1159C137.924 74.1159 137.396 73.9239 137 73.5399C136.623 73.1751 136.435 72.6567 136.435 71.9846C136.435 71.5047 136.566 71.1015 136.887 70.7943C137.189 70.4871 137.585 70.2375 138.113 70.0839C138.622 69.8919 139.206 69.7959 139.885 69.7575C140.576 69.7123 141.27 69.7252 141.959 69.7959L141.978 72.1383ZM146.39 68.7975C146.465 67.7415 146.503 66.6854 146.503 65.6102C146.503 64.6502 146.39 63.7863 146.201 63.0183C146.019 62.2867 145.671 61.6092 145.183 61.0407C144.693 60.4839 144.052 60.0615 143.241 59.7543C142.255 59.432 141.222 59.2826 140.187 59.3126C138.773 59.3126 137.434 59.447 136.152 59.6966C134.851 59.9462 133.738 60.2727 132.814 60.7143L133.889 64.2087C134.549 63.9015 135.397 63.6327 136.416 63.4407C137.434 63.2486 138.395 63.1719 139.3 63.1719C140.526 63.1719 141.299 63.4598 141.657 64.055C141.997 64.631 142.091 65.591 141.94 66.9351C140.394 66.8774 138.999 66.9351 137.736 67.1078C136.491 67.2999 135.416 67.607 134.511 68.0678C133.606 68.5479 132.927 69.1622 132.437 69.911C131.966 70.679 131.721 71.6007 131.721 72.7143C131.721 73.4823 131.853 74.2118 132.098 74.8454C132.352 75.4742 132.731 76.0426 133.211 76.5151C133.692 76.9876 134.263 77.3539 134.888 77.591C135.529 77.8407 136.265 77.975 137.094 77.975C138.414 77.975 139.47 77.687 140.3 77.1495C141.129 76.6118 141.789 75.9782 142.242 75.2295H142.43L143.166 77.7255H146.88C146.592 76.8298 146.415 75.901 146.352 74.9607C146.254 72.9135 146.266 70.8624 146.39 68.8167V68.7975Z" fill="#0B0A0A"/>
<path d="M157.496 74.231C156.854 74.231 156.364 74.1543 155.968 74.0006C155.591 73.8279 155.214 73.6167 154.894 73.3671V65.879C155.176 64.9574 155.572 64.2855 156.063 63.8247C156.65 63.3342 157.397 63.0873 158.155 63.1335C159.287 63.1335 160.135 63.5751 160.644 64.4391C161.172 65.3031 161.417 66.5319 161.417 68.1063C161.417 70.2951 161.097 71.8503 160.437 72.8102C159.777 73.7702 158.797 74.231 157.496 74.231ZM156.496 59.831C155.617 60.3042 154.87 60.9981 154.328 61.8471H154.196L153.668 59.6775H150.331V84.887H154.894V77.5143C155.883 78.0273 156.991 78.2594 158.099 78.1863C159.381 78.1863 160.512 77.9559 161.493 77.5143C162.511 77.0535 163.341 76.3815 164.038 75.5175C164.717 74.6535 165.245 73.5975 165.603 72.3687C165.943 71.1399 166.131 69.7575 166.131 68.2215C166.131 65.0535 165.565 62.7495 164.472 61.3095C163.378 59.8887 161.719 59.1782 159.532 59.1782C158.325 59.1782 157.326 59.3894 156.496 59.831Z" fill="#0B0A0A"/>
<path d="M169.28 77.6871H173.994V63.8247H180.612V59.6583H169.28V77.6871Z" fill="#0B0A0A"/>
<path d="M186.004 66.9543C186.136 65.7255 186.476 64.7463 187.041 64.0167C187.607 63.2871 188.512 62.9223 189.681 62.9223C190.718 62.9223 191.491 63.2679 191.962 63.9591C192.434 64.6695 192.641 65.6679 192.528 66.9543H186.004ZM192.358 59.5431C191.529 59.2935 190.661 59.1782 189.775 59.1782C187.098 59.1782 185.024 59.9655 183.553 61.5591C182.082 63.1335 181.347 65.5143 181.347 68.6823C181.347 71.6391 182.007 73.9622 183.308 75.6518C184.628 77.3415 186.702 78.1863 189.53 78.1863C190.888 78.1863 192.17 77.9943 193.358 77.6103C194.564 77.2071 195.526 76.7079 196.224 76.1319L194.715 73.0599C193.46 73.9836 191.946 74.4686 190.397 74.4423C188.851 74.4423 187.739 74.0583 187.041 73.2903C186.362 72.5223 185.985 71.3702 185.91 69.8727H196.431C196.638 68.7448 196.758 67.6021 196.789 66.455C196.789 65.0535 196.601 63.9015 196.186 62.9607C195.848 62.1301 195.327 61.3898 194.664 60.7971C194 60.2044 193.211 59.7753 192.358 59.5431Z" fill="#0B0A0A"/>
<path d="M198.053 63.8247H203.068V77.6871H207.782V63.8247H212.646V59.6583H198.053V63.8247Z" fill="#0B0A0A"/>
<path d="M56.1501 78.5894L65.5022 70.9863V54.4743H56.6403V22.1031H46.3078V54.4359H33.9955V22.1222H23.6441V65.0726H56.1501V78.5894Z" fill="#0B0A0A"/>
<path d="M10.3514 11.5239H76.3438V86.2887H10.3514V11.5239ZM0 0.90625V96.9062H86.6951V0.90625H0Z" fill="#0B0A0A"/>
<path d="M10.3514 11.5239H76.3438V86.2887H10.3514V11.5239ZM0 0.90625V96.9063H86.6951V0.90625H0Z" fill="#FDD100"/>
</g>
<defs>
<clipPath id="clip0_1775_4146">
<rect width="247" height="96" fill="white" transform="translate(0 0.90625)"/>
</clipPath>
</defs>
</svg>
