<svg width="354" height="111" viewBox="0 0 354 111" fill="none" xmlns="http://www.w3.org/2000/svg">
<mask id="path-1-outside-1_1819_4720" maskUnits="userSpaceOnUse" x="1.03223" y="1.84375" width="352" height="108" fill="black">
<rect fill="white" x="1.03223" y="1.84375" width="352" height="108"/>
<path d="M88.4732 39.7761L97.822 73.441L54.9677 98.969L12.0322 73.3931L22.0031 39.7761C19.0832 38.419 16.7145 36.1077 15.2884 33.2242C13.8623 30.3406 13.4643 27.0575 14.1602 23.9174C14.856 20.7774 16.6041 17.9684 19.1154 15.9549C21.6267 13.9414 24.7509 12.8439 27.9716 12.8438H29.251C32.5989 12.8788 35.8265 14.0951 38.3627 16.2775C40.2872 17.8841 41.709 20.009 42.4588 22.3994H67.6307C69.1015 17.9643 73.083 14.2459 77.7909 13.226C78.7143 13.0102 79.6559 12.8822 80.6035 12.8438H81.8829C85.6345 12.8438 89.2326 14.332 91.8857 16.9811C94.5385 19.6302 96.0289 23.2231 96.0289 26.9694C96.0269 32.6426 93.3038 37.5346 88.4732 39.7761Z"/>
<path d="M39.919 35.0268L47.9593 34.9687L36.2763 52.092C34.9972 51.6946 33.7553 51.1857 32.5651 50.5714L39.919 35.0268Z"/>
<path d="M69.2195 34.9687L77.5408 35.0268L65.8035 52.1728C64.411 51.8315 63.0546 51.3572 61.7533 50.7561L69.2195 34.9687Z"/>
<path d="M144.819 35.1224L130.17 71.2946C124.994 83.9974 118.087 86.3904 112.928 86.3904C110.432 86.3904 108.87 86.1141 107.026 85.5596L106.941 75.173C108.636 75.8698 110.447 76.2418 112.279 76.2698C114.955 76.2698 117.532 75.3557 119.194 72.6844L102.235 35.1224H115.51L123.989 61.5375H124.638L131.919 35.1224H144.819Z"/>
<path d="M298.004 45.987L292.105 73.5009H291.461L284.18 45.9827H272.29L286.576 83.9976C284.733 87.0346 282.336 87.9548 279.94 87.9548C278.559 87.9548 276.899 87.5871 275.423 87.0346L275.513 96.3304C277.272 96.7102 279.063 96.8956 280.86 96.8829C285.194 96.8829 292.844 94.3052 297.174 81.9742L309.71 45.987H298.004Z"/>
<path d="M270.997 45.9898H260.304L247.77 65.5933V45.9898H237.817V85.2882H247.77V76.9126L254.316 68.354L263.349 85.2882H274.96L260.304 60.2546L270.997 45.9898Z"/>
<path d="M233.761 61.6332C233.3 52.4307 227.033 44.7903 216.249 44.7903C205.926 44.7903 196.617 52.4307 196.617 65.5904C196.617 78.7502 205.926 86.3906 216.249 86.3906C227.033 86.3906 233.306 77.9235 233.761 69.6411H222.527C222.896 75.0713 220.42 79.2114 215.167 79.2114C209.729 79.2114 207.78 73.505 207.78 65.5904C207.78 57.6758 209.729 51.8802 215.167 51.8802C220.42 51.8802 222.896 56.1137 222.527 61.6435L233.761 61.6332Z"/>
<path d="M313.21 45.9868L312.474 71.2966C312.382 75.8065 310.353 77.5555 308.234 77.5555C307.329 77.5821 306.425 77.4579 305.56 77.188V85.7568C306.943 86.2181 308.417 86.4008 310.263 86.4008C315.792 86.4008 321.782 82.9046 322.243 72.1358L322.981 53.6353H332.473V85.2874H341.968V45.9868H313.21Z"/>
<path d="M168.507 71.0234H167.862L160.673 45.9898H143.531V85.2882H153.209L153.115 53.3517H153.76L164.084 85.2882H172.102L182.333 53.3517H183.163L182.886 85.2882H192.655V45.9898H175.42L168.507 71.0234Z"/>
<path d="M50.2625 69.425V79.6931C55.8606 80.0214 61.5732 78.5173 66.0417 75.4388C71.2425 71.9074 74.3733 66.8366 75.1555 60.7584H68.5131C66.362 69.2961 58.1865 72.1233 50.2625 69.425Z"/>
<path d="M54.4232 66.0412C54.5958 66.0412 54.7644 66.0537 54.9265 66.0537C55.0888 66.0537 55.2595 66.0537 55.4405 66.0412C59.9756 65.8149 64.858 62.3582 64.858 55.3058V54.8238H44.9953V55.3058C44.9953 62.3519 49.8693 65.8086 54.4023 66.0412H54.4232Z"/>
<path d="M36.2763 52.092C37.3756 52.3783 38.5006 52.551 39.6351 52.6073H39.6685C39.9472 52.6218 40.2218 52.6279 40.486 52.6279C40.7501 52.6279 41.0248 52.6279 41.2973 52.6073H41.3203C47.0431 52.3267 51.9298 49.2337 54.5468 44.3769H55.379C56.7199 46.8968 58.7368 48.9943 61.2039 50.4343L61.7533 50.7561L69.2172 34.9667H47.9585L36.2763 52.092Z"/>
<path d="M88.4732 39.7761C93.3038 37.5346 96.0269 32.6426 96.0289 26.9694C96.0289 23.2231 94.5385 19.6302 91.8857 16.9811C89.2326 14.332 85.6325 12.8438 81.8806 12.8438H80.6012C79.6518 12.8818 78.7079 13.0098 77.7824 13.226C73.0748 14.2459 69.0931 17.9643 67.6223 22.3994H42.4504C41.7006 20.009 40.279 17.8841 38.3543 16.2775C35.8204 14.0969 32.596 12.8807 29.251 12.8438H27.9716C24.7485 12.8408 21.621 13.9371 19.1069 15.9509C16.5928 17.9648 14.8428 20.7757 14.1466 23.9181C13.4504 27.0605 13.8497 30.3462 15.2784 33.2311C16.7071 36.1161 19.0796 38.4274 22.0031 39.7823L12.0322 73.3931L54.9616 98.969L97.8159 73.441L88.4732 39.7761ZM54.9698 87.8013L22.0614 70.9232L27.4369 46.8264H28.1151C29.2233 48.1913 30.5607 49.3532 32.0677 50.2603L32.5628 50.5656L39.9167 35.0211H28.9847C27.308 35.0211 25.6999 34.356 24.5143 33.1721C23.3287 31.9882 22.6626 30.3825 22.6626 28.7082C22.6626 27.0339 23.3287 25.4281 24.5143 24.2442C25.6999 23.0603 27.308 22.3952 28.9847 22.3952C29.1095 22.3952 29.2322 22.4056 29.3467 22.4139C30.4708 22.4609 31.5605 22.815 32.4969 23.4377C33.4334 24.0604 34.1807 24.9278 34.6576 25.9453C35.0705 26.7954 35.2839 27.7282 35.2818 28.6729C35.2824 28.9508 35.2636 29.2284 35.2257 29.5038V29.8465H74.6911C74.614 29.4601 74.5757 29.0669 74.5767 28.6729C74.58 27.2585 75.0614 25.8866 75.943 24.7796C76.8248 23.6726 78.055 22.8954 79.4342 22.5739C80.3566 22.3512 81.3177 22.3414 82.2444 22.5453C83.1711 22.7493 84.0389 23.1615 84.782 23.7508C85.5253 24.34 86.1241 25.0907 86.5329 25.9458C86.9417 26.8009 87.15 27.7378 87.1418 28.6853C87.1463 30.3572 86.4876 31.9628 85.3101 33.1512C84.1324 34.3397 82.5315 35.0141 80.8572 35.0274H77.5287L65.7916 52.1734C66.7114 52.3813 67.6477 52.5092 68.5895 52.5557H68.6186C68.8955 52.5743 69.1722 52.5743 69.4302 52.5743C69.688 52.5743 69.9646 52.5743 70.2622 52.5557C75.076 52.3167 79.3823 50.0463 82.1616 46.3674H82.8315L87.8533 70.9127L54.9698 87.8013Z"/>
</mask>
<path d="M88.4732 39.7761L97.822 73.441L54.9677 98.969L12.0322 73.3931L22.0031 39.7761C19.0832 38.419 16.7145 36.1077 15.2884 33.2242C13.8623 30.3406 13.4643 27.0575 14.1602 23.9174C14.856 20.7774 16.6041 17.9684 19.1154 15.9549C21.6267 13.9414 24.7509 12.8439 27.9716 12.8438H29.251C32.5989 12.8788 35.8265 14.0951 38.3627 16.2775C40.2872 17.8841 41.709 20.009 42.4588 22.3994H67.6307C69.1015 17.9643 73.083 14.2459 77.7909 13.226C78.7143 13.0102 79.6559 12.8822 80.6035 12.8438H81.8829C85.6345 12.8438 89.2326 14.332 91.8857 16.9811C94.5385 19.6302 96.0289 23.2231 96.0289 26.9694C96.0269 32.6426 93.3038 37.5346 88.4732 39.7761Z" fill="#FF9B50"/>
<path d="M39.919 35.0268L47.9593 34.9687L36.2763 52.092C34.9972 51.6946 33.7553 51.1857 32.5651 50.5714L39.919 35.0268Z" fill="white"/>
<path d="M69.2195 34.9687L77.5408 35.0268L65.8035 52.1728C64.411 51.8315 63.0546 51.3572 61.7533 50.7561L69.2195 34.9687Z" fill="white"/>
<path d="M144.819 35.1224L130.17 71.2946C124.994 83.9974 118.087 86.3904 112.928 86.3904C110.432 86.3904 108.87 86.1141 107.026 85.5596L106.941 75.173C108.636 75.8698 110.447 76.2418 112.279 76.2698C114.955 76.2698 117.532 75.3557 119.194 72.6844L102.235 35.1224H115.51L123.989 61.5375H124.638L131.919 35.1224H144.819Z" fill="black"/>
<path d="M298.004 45.987L292.105 73.5009H291.461L284.18 45.9827H272.29L286.576 83.9976C284.733 87.0346 282.336 87.9548 279.94 87.9548C278.559 87.9548 276.899 87.5871 275.423 87.0346L275.513 96.3304C277.272 96.7102 279.063 96.8956 280.86 96.8829C285.194 96.8829 292.844 94.3052 297.174 81.9742L309.71 45.987H298.004Z" fill="black"/>
<path d="M270.997 45.9898H260.304L247.77 65.5933V45.9898H237.817V85.2882H247.77V76.9126L254.316 68.354L263.349 85.2882H274.96L260.304 60.2546L270.997 45.9898Z" fill="black"/>
<path d="M233.761 61.6332C233.3 52.4307 227.033 44.7903 216.249 44.7903C205.926 44.7903 196.617 52.4307 196.617 65.5904C196.617 78.7502 205.926 86.3906 216.249 86.3906C227.033 86.3906 233.306 77.9235 233.761 69.6411H222.527C222.896 75.0713 220.42 79.2114 215.167 79.2114C209.729 79.2114 207.78 73.505 207.78 65.5904C207.78 57.6758 209.729 51.8802 215.167 51.8802C220.42 51.8802 222.896 56.1137 222.527 61.6435L233.761 61.6332Z" fill="black"/>
<path d="M313.21 45.9868L312.474 71.2966C312.382 75.8065 310.353 77.5555 308.234 77.5555C307.329 77.5821 306.425 77.4579 305.56 77.188V85.7568C306.943 86.2181 308.417 86.4008 310.263 86.4008C315.792 86.4008 321.782 82.9046 322.243 72.1358L322.981 53.6353H332.473V85.2874H341.968V45.9868H313.21Z" fill="black"/>
<path d="M168.507 71.0234H167.862L160.673 45.9898H143.531V85.2882H153.209L153.115 53.3517H153.76L164.084 85.2882H172.102L182.333 53.3517H183.163L182.886 85.2882H192.655V45.9898H175.42L168.507 71.0234Z" fill="black"/>
<path d="M50.2625 69.425V79.6931C55.8606 80.0214 61.5732 78.5173 66.0417 75.4388C71.2425 71.9074 74.3733 66.8366 75.1555 60.7584H68.5131C66.362 69.2961 58.1865 72.1233 50.2625 69.425Z" fill="black"/>
<path d="M54.4232 66.0412C54.5958 66.0412 54.7644 66.0537 54.9265 66.0537C55.0888 66.0537 55.2595 66.0537 55.4405 66.0412C59.9756 65.8149 64.858 62.3582 64.858 55.3058V54.8238H44.9953V55.3058C44.9953 62.3519 49.8693 65.8086 54.4023 66.0412H54.4232Z" fill="black"/>
<path d="M36.2763 52.092C37.3756 52.3783 38.5006 52.551 39.6351 52.6073H39.6685C39.9472 52.6218 40.2218 52.6279 40.486 52.6279C40.7501 52.6279 41.0248 52.6279 41.2973 52.6073H41.3203C47.0431 52.3267 51.9298 49.2337 54.5468 44.3769H55.379C56.7199 46.8968 58.7368 48.9943 61.2039 50.4343L61.7533 50.7561L69.2172 34.9667H47.9585L36.2763 52.092Z" fill="black"/>
<path d="M88.4732 39.7761C93.3038 37.5346 96.0269 32.6426 96.0289 26.9694C96.0289 23.2231 94.5385 19.6302 91.8857 16.9811C89.2326 14.332 85.6325 12.8438 81.8806 12.8438H80.6012C79.6518 12.8818 78.7079 13.0098 77.7824 13.226C73.0748 14.2459 69.0931 17.9643 67.6223 22.3994H42.4504C41.7006 20.009 40.279 17.8841 38.3543 16.2775C35.8204 14.0969 32.596 12.8807 29.251 12.8438H27.9716C24.7485 12.8408 21.621 13.9371 19.1069 15.9509C16.5928 17.9648 14.8428 20.7757 14.1466 23.9181C13.4504 27.0605 13.8497 30.3462 15.2784 33.2311C16.7071 36.1161 19.0796 38.4274 22.0031 39.7823L12.0322 73.3931L54.9616 98.969L97.8159 73.441L88.4732 39.7761ZM54.9698 87.8013L22.0614 70.9232L27.4369 46.8264H28.1151C29.2233 48.1913 30.5607 49.3532 32.0677 50.2603L32.5628 50.5656L39.9167 35.0211H28.9847C27.308 35.0211 25.6999 34.356 24.5143 33.1721C23.3287 31.9882 22.6626 30.3825 22.6626 28.7082C22.6626 27.0339 23.3287 25.4281 24.5143 24.2442C25.6999 23.0603 27.308 22.3952 28.9847 22.3952C29.1095 22.3952 29.2322 22.4056 29.3467 22.4139C30.4708 22.4609 31.5605 22.815 32.4969 23.4377C33.4334 24.0604 34.1807 24.9278 34.6576 25.9453C35.0705 26.7954 35.2839 27.7282 35.2818 28.6729C35.2824 28.9508 35.2636 29.2284 35.2257 29.5038V29.8465H74.6911C74.614 29.4601 74.5757 29.0669 74.5767 28.6729C74.58 27.2585 75.0614 25.8866 75.943 24.7796C76.8248 23.6726 78.055 22.8954 79.4342 22.5739C80.3566 22.3512 81.3177 22.3414 82.2444 22.5453C83.1711 22.7493 84.0389 23.1615 84.782 23.7508C85.5253 24.34 86.1241 25.0907 86.5329 25.9458C86.9417 26.8009 87.15 27.7378 87.1418 28.6853C87.1463 30.3572 86.4876 31.9628 85.3101 33.1512C84.1324 34.3397 82.5315 35.0141 80.8572 35.0274H77.5287L65.7916 52.1734C66.7114 52.3813 67.6477 52.5092 68.5895 52.5557H68.6186C68.8955 52.5743 69.1722 52.5743 69.4302 52.5743C69.688 52.5743 69.9646 52.5743 70.2622 52.5557C75.076 52.3167 79.3823 50.0463 82.1616 46.3674H82.8315L87.8533 70.9127L54.9698 87.8013Z" fill="black"/>
<path d="M96.0289 26.9694L101.235 26.9713V26.9694H96.0289ZM27.9716 18.0496H29.251V7.63787H27.9716V18.0496ZM88.2071 20.6648C89.8829 22.3382 90.823 24.6062 90.823 26.9694H101.235C101.235 21.8399 99.194 16.9221 95.5642 13.2974L88.2071 20.6648ZM90.823 26.9676C90.8216 30.9735 88.9701 33.8065 86.2819 35.0539L90.6645 44.4984C97.6374 41.2627 101.232 34.3117 101.235 26.9713L90.823 26.9676ZM88.4732 39.7761L98.5053 36.9902C96.9667 31.4499 91.2285 28.2057 85.6881 29.7438C80.1477 31.2819 76.903 37.0199 78.4406 42.5604L88.4732 39.7761ZM97.822 73.441L103.15 82.3859C107.184 79.9833 109.11 75.1786 107.854 70.655L97.822 73.441ZM54.9677 98.969L49.6393 107.914C52.9224 109.87 57.0131 109.87 60.2962 107.914L54.9677 98.969ZM12.0322 73.3931L2.05028 70.4324C0.696116 74.998 2.61214 79.9004 6.70328 82.3378L12.0322 73.3931ZM22.0031 39.7761L31.9851 42.7368C33.453 37.7877 31.0729 32.5102 26.3915 30.3344L22.0031 39.7761ZM15.2884 33.2242L5.9556 37.8398L5.95565 37.8399L15.2884 33.2242ZM14.1602 23.9174L24.3253 26.1701L24.3253 26.1701L14.1602 23.9174ZM19.1154 15.9549L12.6024 7.83175L12.6024 7.83177L19.1154 15.9549ZM27.9716 12.8438L27.972 23.2555C33.7203 23.2553 38.3808 18.5966 38.3833 12.8483C38.3858 7.09994 33.7293 2.43721 27.981 2.432L27.9716 12.8438ZM29.251 12.8438L29.3598 2.43256C23.6111 2.37244 18.9016 6.98307 18.8398 12.7318C18.778 18.4805 23.3872 23.1914 29.1359 23.2549L29.251 12.8438ZM38.3627 16.2775L31.5715 24.1696C31.6108 24.2034 31.6504 24.237 31.6903 24.2702L38.3627 16.2775ZM42.4588 22.3994L32.5244 25.5157C33.8862 29.8569 37.9091 32.8111 42.4588 32.8111V22.3994ZM67.6307 22.3994V32.8111C72.1181 32.8111 76.1007 29.936 77.5132 25.6767L67.6307 22.3994ZM77.7909 13.226L79.9954 23.4017C80.0504 23.3898 80.1054 23.3774 80.1602 23.3646L77.7909 13.226ZM80.6035 12.8438V2.43199C80.4627 2.43199 80.322 2.43484 80.1814 2.44055L80.6035 12.8438ZM84.5289 24.3488C88.598 28.4118 95.1903 28.4069 99.2534 24.3378C103.316 20.2688 103.311 13.6764 99.2424 9.61338L84.5289 24.3488ZM39.919 35.0268L39.8437 24.6153C35.8455 24.6442 32.2171 26.9601 30.5073 30.5743L39.919 35.0268ZM47.9593 34.9687L56.56 40.8368C58.743 37.6372 58.9694 33.4902 57.1477 30.0719C55.326 26.6537 51.7574 24.5292 47.8841 24.5572L47.9593 34.9687ZM36.2763 52.092L33.1874 62.035C33.3413 62.0828 33.4963 62.127 33.6523 62.1677L36.2763 52.092ZM32.5651 50.5714L23.1534 46.1189C20.7543 51.1901 22.8045 57.2504 27.7898 59.8235L32.5651 50.5714ZM69.2195 34.9687L69.2922 24.5572C65.2401 24.5289 61.5396 26.8542 59.8072 30.5175L69.2195 34.9687ZM77.5408 35.0268L86.1324 40.9082C88.307 37.7315 88.5513 33.6141 86.7675 30.2026C84.9838 26.7911 81.4632 24.6422 77.6135 24.6153L77.5408 35.0268ZM65.8035 52.1728L63.3248 62.2852C67.5359 63.3175 71.9459 61.632 74.3951 58.0542L65.8035 52.1728ZM61.7533 50.7561L56.4901 59.7397C56.7815 59.9104 57.0811 60.0669 57.3877 60.2085L61.7533 50.7561ZM144.819 35.1224L154.47 39.0307C155.77 35.8212 155.389 32.1754 153.454 29.3038C151.518 26.4322 148.282 24.7106 144.819 24.7106V35.1224ZM130.17 71.2946L139.812 75.2233C139.815 75.2165 139.817 75.2097 139.82 75.2029L130.17 71.2946ZM107.026 85.5596L96.615 85.645C96.6525 90.2081 99.6569 94.215 104.027 95.5298L107.026 85.5596ZM106.941 75.173L110.9 65.5433C107.675 64.2171 103.999 64.5941 101.11 66.5474C98.2206 68.5007 96.5011 71.7709 96.5298 75.2584L106.941 75.173ZM112.279 76.2698L112.12 86.6804C112.173 86.6812 112.226 86.6816 112.279 86.6816V76.2698ZM119.194 72.6844L128.034 78.1846C129.869 75.2355 130.113 71.5657 128.684 68.4001L119.194 72.6844ZM102.235 35.1224V24.7106C98.7001 24.7106 95.4063 26.5045 93.4886 29.4745C91.5709 32.4444 91.2912 36.1846 92.746 39.4067L102.235 35.1224ZM115.51 35.1224L125.423 31.9401C124.041 27.6323 120.034 24.7106 115.51 24.7106V35.1224ZM123.989 61.5375L114.076 64.7197C115.458 69.0275 119.465 71.9492 123.989 71.9492V61.5375ZM124.638 61.5375V71.9492C129.323 71.9492 133.431 68.8204 134.676 64.3041L124.638 61.5375ZM131.919 35.1224V24.7106C127.235 24.7106 123.127 27.8394 121.882 32.3557L131.919 35.1224ZM298.004 45.987V35.5752C293.095 35.5752 288.853 39.0041 287.824 43.804L298.004 45.987ZM292.105 73.5009V83.9127C297.014 83.9127 301.256 80.4838 302.285 75.6839L292.105 73.5009ZM291.461 73.5009L281.396 76.1642C282.604 80.7315 286.736 83.9127 291.461 83.9127V73.5009ZM284.18 45.9827L294.245 43.3194C293.037 38.7521 288.904 35.5709 284.18 35.5709V45.9827ZM272.29 45.9827V35.5709C268.874 35.5709 265.675 37.2467 263.73 40.0551C261.785 42.8636 261.342 46.4474 262.544 49.6452L272.29 45.9827ZM286.576 83.9976L295.477 89.3977C297.134 86.6664 297.446 83.3255 296.322 80.335L286.576 83.9976ZM275.423 87.0346L279.074 77.284C275.861 76.0805 272.26 76.5381 269.449 78.5071C266.639 80.4762 264.979 83.7039 265.012 87.1356L275.423 87.0346ZM275.513 96.3304L265.102 96.4314C265.149 101.296 268.56 105.48 273.315 106.507L275.513 96.3304ZM280.86 96.8829V86.4712C280.836 86.4712 280.811 86.4713 280.787 86.4714L280.86 96.8829ZM297.174 81.9742L306.998 85.4239C307.001 85.4156 307.004 85.4074 307.007 85.3991L297.174 81.9742ZM309.71 45.987L319.542 49.4119C320.651 46.228 320.15 42.7043 318.197 39.956C316.244 37.2077 313.081 35.5752 309.71 35.5752V45.987ZM270.997 45.9898L279.328 52.2349C281.693 49.0797 282.073 44.8591 280.309 41.3324C278.545 37.8057 274.94 35.5781 270.997 35.5781V45.9898ZM260.304 45.9898V35.5781C256.752 35.5781 253.445 37.3888 251.532 40.3814L260.304 45.9898ZM247.77 65.5933H237.358C237.358 70.2183 240.409 74.2889 244.849 75.5867C249.288 76.8845 254.051 75.0984 256.542 71.2017L247.77 65.5933ZM247.77 45.9898H258.182C258.182 40.2396 253.52 35.5781 247.77 35.5781V45.9898ZM237.817 45.9898V35.5781C232.067 35.5781 227.405 40.2396 227.405 45.9898H237.817ZM237.817 85.2882H227.405C227.405 91.0385 232.067 95.7 237.817 95.7V85.2882ZM247.77 85.2882V95.7C253.52 95.7 258.182 91.0385 258.182 85.2882H247.77ZM247.77 76.9126L239.5 70.5876C238.111 72.4036 237.358 74.6263 237.358 76.9126H247.77ZM254.316 68.354L263.502 63.4536C261.835 60.3282 258.693 58.2649 255.163 57.9767C251.632 57.6886 248.197 59.2152 246.045 62.029L254.316 68.354ZM263.349 85.2882L254.162 90.1886C255.972 93.581 259.504 95.7 263.349 95.7V85.2882ZM274.96 85.2882V95.7C278.691 95.7 282.137 93.7035 283.993 90.4667C285.848 87.2299 285.83 83.2475 283.945 80.0277L274.96 85.2882ZM260.304 60.2546L251.973 54.0096C249.459 57.3634 249.201 61.8979 251.319 65.5151L260.304 60.2546ZM233.761 61.6332L233.771 72.045C236.621 72.0424 239.345 70.8715 241.309 68.8054C243.272 66.7394 244.303 63.9588 244.16 61.1122L233.761 61.6332ZM233.761 69.6411L244.157 70.2122C244.314 67.356 243.289 64.5611 241.323 62.4836C239.356 60.4062 236.622 59.2294 233.761 59.2294V69.6411ZM222.527 69.6411V59.2294C219.643 59.2294 216.888 60.4255 214.919 62.5328C212.95 64.64 211.944 67.4695 212.139 70.3468L222.527 69.6411ZM222.527 61.6435L212.138 60.9505C211.946 63.8275 212.956 66.6552 214.927 68.7599C216.898 70.8646 219.653 72.0578 222.537 72.0552L222.527 61.6435ZM313.21 45.9868V35.575C307.578 35.575 302.966 40.0542 302.803 45.6843L313.21 45.9868ZM312.474 71.2966L302.067 70.9941C302.066 71.024 302.065 71.0539 302.065 71.0838L312.474 71.2966ZM308.234 77.5555V67.1438C308.133 67.1438 308.031 67.1453 307.929 67.1483L308.234 77.5555ZM305.56 77.188L308.662 67.2491C305.501 66.2625 302.059 66.8384 299.391 68.8004C296.724 70.7625 295.148 73.8765 295.148 77.188H305.56ZM305.56 85.7568H295.148C295.148 90.238 298.016 94.2165 302.267 95.634L305.56 85.7568ZM322.243 72.1358L332.646 72.5812C332.646 72.571 332.647 72.5609 332.647 72.5507L322.243 72.1358ZM322.981 53.6353V43.2236C317.392 43.2236 312.8 47.6361 312.578 53.2205L322.981 53.6353ZM332.473 53.6353H342.885C342.885 47.8851 338.224 43.2236 332.473 43.2236V53.6353ZM332.473 85.2874H322.062C322.062 91.0377 326.723 95.6992 332.473 95.6992V85.2874ZM341.968 85.2874V95.6992C347.718 95.6992 352.38 91.0377 352.38 85.2874H341.968ZM341.968 45.9868H352.38C352.38 40.2365 347.718 35.575 341.968 35.575V45.9868ZM168.507 71.0234V81.4352C173.19 81.4352 177.297 78.3088 178.543 73.7948L168.507 71.0234ZM167.862 71.0234L157.855 73.8975C159.137 78.3604 163.219 81.4352 167.862 81.4352V71.0234ZM160.673 45.9898L170.68 43.1158C169.398 38.6528 165.316 35.5781 160.673 35.5781V45.9898ZM143.531 45.9898V35.5781C137.781 35.5781 133.119 40.2396 133.119 45.9898H143.531ZM143.531 85.2882H133.119C133.119 91.0385 137.781 95.7 143.531 95.7V85.2882ZM153.209 85.2882V95.7C155.975 95.7 158.628 94.5988 160.582 92.6396C162.535 90.6804 163.628 88.0243 163.62 85.2577L153.209 85.2882ZM153.115 53.3517V42.94C150.348 42.94 147.695 44.0411 145.742 46.0003C143.788 47.9595 142.695 50.6156 142.703 53.3823L153.115 53.3517ZM153.76 53.3517L163.667 50.149C162.278 45.8516 158.276 42.94 153.76 42.94V53.3517ZM164.084 85.2882L154.177 88.491C155.567 92.7883 159.568 95.7 164.084 95.7V85.2882ZM172.102 85.2882V95.7C176.629 95.7 180.636 92.7754 182.017 88.4646L172.102 85.2882ZM182.333 53.3517V42.94C177.806 42.94 173.798 45.8646 172.417 50.1753L182.333 53.3517ZM183.163 53.3517L193.574 53.4418C193.598 50.665 192.512 47.9935 190.557 46.0214C188.602 44.0493 185.94 42.94 183.163 42.94V53.3517ZM182.886 85.2882L172.475 85.1981C172.451 87.975 173.537 90.6464 175.492 92.6185C177.447 94.5906 180.109 95.7 182.886 95.7V85.2882ZM192.655 85.2882V95.7C198.406 95.7 203.067 91.0385 203.067 85.2882H192.655ZM192.655 45.9898H203.067C203.067 40.2396 198.406 35.5781 192.655 35.5781V45.9898ZM175.42 45.9898V35.5781C170.737 35.5781 166.63 38.7044 165.384 43.2184L175.42 45.9898ZM50.2625 69.425L53.6187 59.569C50.4394 58.4864 46.933 59.0039 44.202 60.959C41.471 62.914 39.8508 66.0664 39.8508 69.425H50.2625ZM50.2625 79.6931H39.8508C39.8508 85.2067 44.149 89.7643 49.6531 90.087L50.2625 79.6931ZM66.0417 75.4388L60.193 66.825C60.1735 66.8382 60.1541 66.8515 60.1347 66.8648L66.0417 75.4388ZM75.1555 60.7584L85.4821 62.0874C85.8641 59.1188 84.9501 56.1295 82.9734 53.8821C80.9967 51.6347 78.1485 50.3466 75.1555 50.3466V60.7584ZM68.5131 60.7584V50.3466C63.7426 50.3466 59.5824 53.5887 58.4169 58.2146L68.5131 60.7584ZM55.4405 66.0412L54.9215 55.6424C54.8556 55.6457 54.7898 55.6496 54.7239 55.6541L55.4405 66.0412ZM64.858 54.8238H75.2698C75.2698 49.0736 70.6082 44.4121 64.858 44.4121V54.8238ZM44.9953 54.8238V44.4121C39.245 44.4121 34.5835 49.0736 34.5835 54.8238H44.9953ZM54.4023 66.0412L53.8686 76.4393C54.0464 76.4484 54.2243 76.453 54.4023 76.453V66.0412ZM39.6351 52.6073L39.1193 63.0062C39.2911 63.0148 39.4631 63.019 39.6351 63.019V52.6073ZM39.6685 52.6073L40.2106 42.2096C40.03 42.2002 39.8493 42.1955 39.6685 42.1955V52.6073ZM41.2973 52.6073V42.1955C41.0346 42.1955 40.772 42.2054 40.51 42.2253L41.2973 52.6073ZM41.3203 52.6073V63.019C41.4903 63.019 41.6603 63.0149 41.8301 63.0065L41.3203 52.6073ZM54.5468 44.3769V33.9652C50.7175 33.9652 47.1973 36.0671 45.3809 39.4381L54.5468 44.3769ZM55.379 44.3769L64.5705 39.486C62.7626 36.0883 59.2277 33.9652 55.379 33.9652V44.3769ZM61.2039 50.4343L66.4671 41.4508C66.4622 41.4479 66.4573 41.445 66.4524 41.4421L61.2039 50.4343ZM69.2172 34.9667L78.6303 39.4163C80.155 36.1909 79.9221 32.4094 78.0131 29.3955C76.1041 26.3815 72.7849 24.5549 69.2172 24.5549V34.9667ZM47.9585 34.9667V24.5549C44.5166 24.5549 41.297 26.2559 39.3574 29.0993L47.9585 34.9667ZM80.6012 12.8438V2.432C80.4622 2.432 80.3232 2.43478 80.1842 2.44035L80.6012 12.8438ZM77.7824 13.226L79.9871 23.4017C80.0418 23.3898 80.0964 23.3775 80.1508 23.3648L77.7824 13.226ZM67.6223 22.3994V32.8111C72.1097 32.8111 76.0923 29.936 77.5048 25.6767L67.6223 22.3994ZM42.4504 22.3994L32.516 25.5158C33.8778 29.8569 37.9007 32.8111 42.4504 32.8111V22.3994ZM38.3543 16.2775L31.5629 24.1694C31.6025 24.2034 31.6422 24.2372 31.6823 24.2706L38.3543 16.2775ZM19.1069 15.9509L12.5976 7.82484L12.5976 7.82484L19.1069 15.9509ZM14.1466 23.9181L3.98132 21.6659L3.98132 21.6659L14.1466 23.9181ZM15.2784 33.2311L24.6087 28.6105L24.6087 28.6104L15.2784 33.2311ZM22.0031 39.7823L31.9849 42.7435C33.4544 37.79 31.069 32.5082 26.3811 30.3357L22.0031 39.7823ZM54.9616 98.969L49.6326 107.914C52.9158 109.87 57.0067 109.87 60.29 107.914L54.9616 98.969ZM97.8159 73.441L103.144 82.3859C107.177 79.9836 109.104 75.1799 107.848 70.6567L97.8159 73.441ZM54.9698 87.8013L50.2182 97.0656C53.203 98.5965 56.7425 98.5955 59.7265 97.063L54.9698 87.8013ZM22.0614 70.9232L11.8994 68.6562C10.8672 73.2835 13.0913 78.0239 17.3099 80.1875L22.0614 70.9232ZM27.4369 46.8264V36.4146C22.5601 36.4146 18.3368 39.7996 17.2749 44.5594L27.4369 46.8264ZM28.1151 46.8264L36.1982 40.2638C34.2212 37.8287 31.2517 36.4146 28.1151 36.4146V46.8264ZM32.0677 50.2603L37.5325 41.398C37.5009 41.3785 37.4692 41.3592 37.4373 41.34L32.0677 50.2603ZM32.5628 50.5656L27.098 59.428C29.6189 60.9824 32.6824 61.3898 35.5219 60.5481C38.3614 59.7064 40.708 57.6953 41.9745 55.0182L32.5628 50.5656ZM39.9167 35.0211L49.3284 39.4736C50.8543 36.2481 50.6222 32.4659 48.7134 29.4512C46.8046 26.4365 43.4849 24.6093 39.9167 24.6093V35.0211ZM24.5143 33.1721L31.8713 25.8047L31.8712 25.8045L24.5143 33.1721ZM29.3467 22.4139L28.5927 32.7984C28.6991 32.8061 28.8057 32.8122 28.9122 32.8166L29.3467 22.4139ZM32.4969 23.4377L38.2622 14.7678L38.2618 14.7675L32.4969 23.4377ZM34.6576 25.9453L25.2298 30.3635C25.2503 30.4074 25.2712 30.4512 25.2924 30.4947L34.6576 25.9453ZM35.2818 28.6729L24.8701 28.6503C24.8701 28.6655 24.8701 28.6807 24.8701 28.6959L35.2818 28.6729ZM35.2257 29.5038L24.9112 28.0835C24.8464 28.5541 24.8139 29.0287 24.8139 29.5038H35.2257ZM35.2257 29.8465H24.8139C24.8139 35.5968 29.4754 40.2583 35.2257 40.2583V29.8465ZM74.6911 29.8465V40.2583C77.8093 40.2583 80.7634 38.8607 82.741 36.4499C84.7186 34.039 85.5116 30.8687 84.9019 27.8106L74.6911 29.8465ZM74.5767 28.6729L84.9885 28.6999L84.9885 28.697L74.5767 28.6729ZM75.943 24.7796L67.7992 18.2924L67.7985 18.2933L75.943 24.7796ZM79.4342 22.5739L81.798 32.7138C81.8247 32.7075 81.8514 32.7012 81.878 32.6948L79.4342 22.5739ZM82.2444 22.5453L84.4824 12.3769L84.4821 12.3769L82.2444 22.5453ZM84.782 23.7508L78.3128 31.9089L78.3139 31.9098L84.782 23.7508ZM87.1418 28.6853L76.7304 28.5952C76.73 28.6346 76.7299 28.674 76.73 28.7134L87.1418 28.6853ZM85.3101 33.1512L92.7056 40.4801L92.7061 40.4795L85.3101 33.1512ZM80.8572 35.0274V45.4392C80.8848 45.4392 80.9123 45.4391 80.9399 45.4389L80.8572 35.0274ZM77.5287 35.0274V24.6157C74.0928 24.6157 70.878 26.3109 68.9372 29.1462L77.5287 35.0274ZM65.7916 52.1734L57.2001 46.2922C55.2512 49.1392 54.8392 52.7667 56.1 55.9783C57.3608 59.1898 60.1307 61.5682 63.4959 62.329L65.7916 52.1734ZM68.5895 52.5557L68.0767 62.9548C68.2475 62.9632 68.4185 62.9675 68.5895 62.9675V52.5557ZM68.6186 52.5557L69.3174 42.1674C69.0848 42.1518 68.8517 42.1439 68.6186 42.1439V52.5557ZM70.2622 52.5557L69.7458 42.1567C69.7012 42.159 69.6565 42.1615 69.6119 42.1643L70.2622 52.5557ZM82.1616 46.3674V35.9556C78.8972 35.9556 75.8217 37.4866 73.854 40.0913L82.1616 46.3674ZM82.8315 46.3674L93.032 44.2804C92.0406 39.435 87.7773 35.9556 82.8315 35.9556V46.3674ZM87.8533 70.9127L92.61 80.1744C96.7645 78.0407 98.9899 73.4015 98.0537 68.8258L87.8533 70.9127ZM78.4411 42.5621L87.7899 76.2269L107.854 70.655L98.5053 36.9902L78.4411 42.5621ZM92.4936 64.496L49.6393 90.024L60.2962 107.914L103.15 82.3859L92.4936 64.496ZM60.2961 90.024L17.3606 64.4481L6.70385 82.3381L49.6393 107.914L60.2961 90.024ZM22.0142 76.3538L31.9851 42.7368L12.0212 36.8155L2.05028 70.4324L22.0142 76.3538ZM26.3915 30.3344C25.6188 29.9752 24.9954 29.3653 24.6212 28.6085L5.95565 37.8399C8.43355 42.8501 12.5476 46.8628 17.6148 49.2179L26.3915 30.3344ZM24.6212 28.6086C24.2471 27.8522 24.1431 26.9922 24.3253 26.1701L3.99501 21.6648C2.7855 27.1227 3.47755 32.8291 5.9556 37.8398L24.6212 28.6086ZM24.3253 26.1701C24.5075 25.3478 24.966 24.6092 25.6284 24.0781L12.6024 7.83177C8.24222 11.3277 5.2045 16.207 3.99501 21.6648L24.3253 26.1701ZM25.6284 24.0781C26.2911 23.5467 27.1178 23.2556 27.972 23.2555L27.9711 2.43199C22.384 2.43222 16.9623 4.33611 12.6024 7.83175L25.6284 24.0781ZM29.1421 23.255C30.037 23.2643 30.8975 23.5895 31.5715 24.1696L45.154 8.38552C40.7556 4.60065 35.1608 2.49323 29.3598 2.43256L29.1421 23.255ZM31.6903 24.2702C32.0837 24.5987 32.3725 25.0314 32.5244 25.5157L52.3933 19.283C51.0455 14.9866 48.4907 11.1696 45.0352 8.28484L31.6903 24.2702ZM42.4588 32.8111H67.6307V11.9876H42.4588V32.8111ZM77.5132 25.6767C77.8614 24.6268 78.9989 23.6176 79.9954 23.4017L75.5863 3.05029C67.1671 4.87431 60.3416 11.3018 57.7482 19.1221L77.5132 25.6767ZM80.1602 23.3646C80.4444 23.2982 80.7341 23.2588 81.0256 23.247L80.1814 2.44055C78.5777 2.50562 76.9841 2.72222 75.4215 3.08738L80.1602 23.3646ZM80.6035 23.2555H81.8829V2.43199H80.6035V23.2555ZM81.8829 23.2555C82.8779 23.2555 83.8295 23.6504 84.5289 24.3488L99.2424 9.61338C94.6358 5.01358 88.3911 2.43199 81.8829 2.43199V23.2555ZM39.9942 45.4383L48.0346 45.3802L47.8841 24.5572L39.8437 24.6153L39.9942 45.4383ZM39.3587 29.1006L27.6757 46.2239L44.877 57.9601L56.56 40.8368L39.3587 29.1006ZM39.3653 42.149C38.6679 41.9323 37.9903 41.6547 37.3404 41.3193L27.7898 59.8235C29.5203 60.7167 31.3264 61.4568 33.1874 62.035L39.3653 42.149ZM41.9768 55.0239L49.3307 39.4793L30.5073 30.5743L23.1534 46.1189L41.9768 55.0239ZM69.1468 45.3802L77.4681 45.4383L77.6135 24.6153L69.2922 24.5572L69.1468 45.3802ZM68.9493 29.1455L57.212 46.2915L74.3951 58.0542L86.1324 40.9082L68.9493 29.1455ZM68.2823 42.0604C67.5376 41.8779 66.8131 41.6244 66.1189 41.3038L57.3877 60.2085C59.2962 61.0899 61.2845 61.7851 63.3248 62.2852L68.2823 42.0604ZM71.1656 55.2074L78.6318 39.4199L59.8072 30.5175L52.341 46.3049L71.1656 55.2074ZM135.169 31.214L120.52 67.3862L139.82 75.2029L154.47 39.0307L135.169 31.214ZM120.528 67.3658C118.449 72.4679 116.456 74.4345 115.436 75.1735C114.536 75.8252 113.779 75.9786 112.928 75.9786V96.8021C117.237 96.8021 122.513 95.759 127.65 92.0386C132.667 88.4053 136.715 82.824 139.812 75.2233L120.528 67.3658ZM112.928 75.9786C111.464 75.9786 110.911 75.8556 110.026 75.5893L104.027 95.5298C106.828 96.3726 109.4 96.8021 112.928 96.8021V75.9786ZM117.438 85.4741L117.353 75.0875L96.5298 75.2584L96.615 85.645L117.438 85.4741ZM102.982 84.8027C105.884 85.9956 108.984 86.6324 112.12 86.6804L112.438 65.8593C111.91 65.8512 111.388 65.7439 110.9 65.5433L102.982 84.8027ZM112.279 86.6816C117.469 86.6816 123.963 84.7289 128.034 78.1846L110.354 67.1843C110.442 67.0428 110.604 66.8286 110.858 66.602C111.112 66.3756 111.389 66.1975 111.657 66.0705C112.178 65.8234 112.464 65.8581 112.279 65.8581V86.6816ZM128.684 68.4001L111.725 30.838L92.746 39.4067L109.705 76.9688L128.684 68.4001ZM102.235 45.5341H115.51V24.7106H102.235V45.5341ZM105.596 38.3047L114.076 64.7197L133.903 58.3552L125.423 31.9401L105.596 38.3047ZM123.989 71.9492H124.638V51.1257H123.989V71.9492ZM134.676 64.3041L141.957 37.8891L121.882 32.3557L114.601 58.7708L134.676 64.3041ZM131.919 45.5341H144.819V24.7106H131.919V45.5341ZM287.824 43.804L281.924 71.3179L302.285 75.6839L308.185 48.17L287.824 43.804ZM292.105 63.0892H291.461V83.9127H292.105V63.0892ZM301.526 70.8377L294.245 43.3194L274.115 48.6459L281.396 76.1642L301.526 70.8377ZM284.18 35.5709H272.29V56.3944H284.18V35.5709ZM262.544 49.6452L276.829 87.6601L296.322 80.335L282.036 42.3201L262.544 49.6452ZM277.674 78.5975C277.579 78.7538 277.805 78.3388 278.519 77.9535C279.206 77.582 279.784 77.543 279.94 77.543V98.3666C282.492 98.3666 285.466 97.8674 288.412 96.2766C291.384 94.672 293.73 92.2784 295.477 89.3977L277.674 78.5975ZM279.94 77.543C280.049 77.543 280.089 77.5498 280.055 77.5458C280.023 77.5422 279.951 77.5321 279.842 77.5093C279.613 77.4616 279.339 77.3831 279.074 77.284L271.772 96.7851C274.041 97.6346 276.966 98.3666 279.94 98.3666V77.543ZM265.012 87.1356L265.102 96.4314L285.925 96.2294L285.835 86.9335L265.012 87.1356ZM273.315 106.507C275.817 107.048 278.37 107.313 280.934 107.294L280.787 86.4714C279.755 86.4787 278.726 86.3725 277.712 86.1534L273.315 106.507ZM280.86 107.295C285.036 107.295 290.226 106.061 295.156 102.463C300.132 98.8322 304.258 93.2263 306.998 85.4239L287.351 78.5245C285.761 83.053 283.896 84.9015 282.882 85.642C281.821 86.416 281.018 86.4712 280.86 86.4712V107.295ZM307.007 85.3991L319.542 49.4119L299.878 42.562L287.342 78.5493L307.007 85.3991ZM309.71 35.5752H298.004V56.3987H309.71V35.5752ZM270.997 35.5781H260.304V56.4016H270.997V35.5781ZM251.532 40.3814L238.998 59.9848L256.542 71.2017L269.076 51.5983L251.532 40.3814ZM258.182 65.5933V45.9898H237.358V65.5933H258.182ZM247.77 35.5781H237.817V56.4016H247.77V35.5781ZM227.405 45.9898V85.2882H248.229V45.9898H227.405ZM237.817 95.7H247.77V74.8764H237.817V95.7ZM258.182 85.2882V76.9126H237.358V85.2882H258.182ZM256.041 83.2376L262.586 74.679L246.045 62.029L239.5 70.5876L256.041 83.2376ZM245.129 73.2544L254.162 90.1886L272.535 80.3878L263.502 63.4536L245.129 73.2544ZM263.349 95.7H274.96V74.8764H263.349V95.7ZM283.945 80.0277L269.289 54.9941L251.319 65.5151L265.975 90.5487L283.945 80.0277ZM268.635 66.4996L279.328 52.2349L262.666 39.7448L251.973 54.0096L268.635 66.4996ZM244.16 61.1122C243.82 54.3331 241.308 47.6164 236.345 42.5068C231.276 37.2877 224.254 34.3785 216.249 34.3785V55.202C219.028 55.202 220.532 56.113 221.408 57.0148C222.39 58.026 223.241 59.7308 223.363 62.1542L244.16 61.1122ZM216.249 34.3785C200.348 34.3785 186.205 46.5098 186.205 65.5904H207.029C207.029 58.3515 211.504 55.202 216.249 55.202V34.3785ZM186.205 65.5904C186.205 84.671 200.348 96.8023 216.249 96.8023V75.9788C211.504 75.9788 207.029 72.8293 207.029 65.5904H186.205ZM216.249 96.8023C233.611 96.8023 243.46 82.9018 244.157 70.2122L223.365 69.0701C223.265 70.8868 222.502 72.7077 221.305 73.9776C220.248 75.0976 218.702 75.9788 216.249 75.9788V96.8023ZM233.761 59.2294H222.527V80.0529H233.761V59.2294ZM212.139 70.3468C212.217 71.4908 211.89 71.2368 212.495 70.3935C212.835 69.9201 213.353 69.4491 214.003 69.1304C214.636 68.82 215.095 68.7997 215.167 68.7997V89.6232C220.854 89.6232 226.065 87.2024 229.415 82.5316C232.479 78.2607 233.206 73.2216 232.915 68.9355L212.139 70.3468ZM215.167 68.7997C215.735 68.7997 216.709 68.985 217.662 69.6471C218.083 69.9401 218.377 70.2431 218.562 70.4743C218.653 70.5874 218.715 70.6798 218.754 70.7421C218.792 70.8042 218.809 70.8392 218.809 70.84C218.81 70.8407 218.796 70.812 218.772 70.7488C218.748 70.6856 218.717 70.5934 218.68 70.4685C218.606 70.2146 218.523 69.8595 218.446 69.3882C218.291 68.429 218.191 67.1681 218.191 65.5904H197.368C197.368 70.0786 197.869 75.3645 200.059 79.8978C201.219 82.2989 203.017 84.8273 205.776 86.7452C208.623 88.7245 211.88 89.6232 215.167 89.6232V68.7997ZM218.191 65.5904C218.191 64.0133 218.29 62.7433 218.448 61.7705C218.61 60.7681 218.795 60.3269 218.826 60.2626C218.845 60.2226 218.568 60.8207 217.712 61.4231C216.761 62.0927 215.77 62.292 215.167 62.292V41.4684C211.845 41.4684 208.571 42.3921 205.725 44.3958C202.974 46.3321 201.191 48.8739 200.043 51.2721C197.871 55.8096 197.368 61.0974 197.368 65.5904H218.191ZM215.167 62.292C215.061 62.292 214.573 62.2633 213.923 61.9377C213.26 61.6056 212.755 61.1271 212.437 60.6744C212.143 60.257 212.096 59.9914 212.11 60.0543C212.124 60.1185 212.175 60.4085 212.138 60.9505L232.916 62.3364C233.202 58.0377 232.489 52.9916 229.474 48.7019C226.163 43.9906 220.949 41.4684 215.167 41.4684V62.292ZM222.537 72.0552L233.771 72.045L233.752 51.2215L222.518 51.2317L222.537 72.0552ZM302.803 45.6843L302.067 70.9941L322.882 71.5991L323.618 46.2893L302.803 45.6843ZM302.065 71.0838C302.047 71.9479 301.859 71.0494 302.916 69.6993C303.467 68.9956 304.259 68.3106 305.282 67.821C306.291 67.3376 307.317 67.1438 308.234 67.1438V87.9673C312.39 87.9673 316.492 86.1387 319.313 82.5352C321.937 79.1832 322.81 75.1553 322.884 71.5095L302.065 71.0838ZM307.929 67.1483C308.177 67.141 308.425 67.175 308.662 67.2491L302.458 87.1269C304.425 87.7409 306.48 88.0233 308.54 87.9628L307.929 67.1483ZM295.148 77.188V85.7568H315.972V77.188H295.148ZM302.267 95.634C305.052 96.5626 307.723 96.8126 310.263 96.8126V75.989C309.675 75.989 309.323 75.9593 309.119 75.932C308.935 75.9073 308.866 75.8839 308.854 75.8797L302.267 95.634ZM310.263 96.8126C315.192 96.8126 320.903 95.2287 325.473 90.7118C330.065 86.1734 332.335 79.8359 332.646 72.5812L311.841 71.6904C311.766 73.4562 311.479 74.5452 311.244 75.1505C311.128 75.4503 311.023 75.6377 310.955 75.7433C310.888 75.8476 310.844 75.892 310.835 75.9014C310.834 75.9025 310.844 75.9016 310.803 75.9165C310.738 75.9407 310.562 75.989 310.263 75.989V96.8126ZM332.647 72.5507L333.385 54.0502L312.578 53.2205L311.84 71.721L332.647 72.5507ZM322.981 64.0471H332.473V43.2236H322.981V64.0471ZM322.062 53.6353V85.2874H342.885V53.6353H322.062ZM332.473 95.6992H341.968V74.8756H332.473V95.6992ZM352.38 85.2874V45.9868H331.556V85.2874H352.38ZM341.968 35.575H313.21V56.3985H341.968V35.575ZM168.507 60.6117H167.862V81.4352H168.507V60.6117ZM177.869 68.1494L170.68 43.1158L150.665 48.8639L157.855 73.8975L177.869 68.1494ZM160.673 35.5781H143.531V56.4016H160.673V35.5781ZM133.119 45.9898V85.2882H153.943V45.9898H133.119ZM143.531 95.7H153.209V74.8764H143.531V95.7ZM163.62 85.2577L163.527 53.3212L142.703 53.3823L142.797 85.3187L163.62 85.2577ZM153.115 63.7635H153.76V42.94H153.115V63.7635ZM143.853 56.5545L154.177 88.491L173.991 82.0855L163.667 50.149L143.853 56.5545ZM164.084 95.7H172.102V74.8764H164.084V95.7ZM182.017 88.4646L192.248 56.5281L172.417 50.1753L162.187 82.1118L182.017 88.4646ZM182.333 63.7635H183.163V42.94H182.333V63.7635ZM172.751 53.2616L172.475 85.1981L193.298 85.3783L193.574 53.4418L172.751 53.2616ZM182.886 95.7H192.655V74.8764H182.886V95.7ZM203.067 85.2882V45.9898H182.244V85.2882H203.067ZM192.655 35.5781H175.42V56.4016H192.655V35.5781ZM165.384 43.2184L158.471 68.252L178.543 73.7948L185.456 48.7612L165.384 43.2184ZM39.8508 69.425V79.6931H60.6743V69.425H39.8508ZM49.6531 90.087C57.4082 90.5417 65.4455 88.493 71.9486 84.0128L60.1347 66.8648C57.7009 68.5416 54.313 69.501 50.872 69.2992L49.6531 90.087ZM71.8904 84.0526C79.5101 78.8789 84.3119 71.1802 85.4821 62.0874L64.8289 59.4295C64.4346 62.4931 62.975 64.936 60.193 66.825L71.8904 84.0526ZM75.1555 50.3466H68.5131V71.1702H75.1555V50.3466ZM58.4169 58.2146C58.2338 58.941 57.9983 59.2749 57.8877 59.4069C57.7762 59.5399 57.6358 59.6549 57.3999 59.7575C56.8814 59.983 55.5824 60.2377 53.6187 59.569L46.9063 79.2811C52.8666 81.3107 59.6174 81.5009 65.7054 78.853C72.0563 76.0907 76.769 70.6064 78.6093 63.3022L58.4169 58.2146ZM54.4232 76.453C54.3431 76.453 54.2859 76.4516 54.266 76.451C54.251 76.4506 54.2451 76.4503 54.2922 76.4521C54.3231 76.4532 54.413 76.4566 54.5089 76.4593C54.6104 76.4622 54.7559 76.4655 54.9265 76.4655V55.6419C55.0161 55.6419 55.0797 55.6436 55.0986 55.6442C55.1119 55.6445 55.1184 55.6449 55.0653 55.6429C55.0284 55.6415 54.9379 55.6381 54.8377 55.6353C54.7326 55.6325 54.5896 55.6295 54.4232 55.6295V76.453ZM54.9265 76.4655C55.0497 76.4655 55.5658 76.4691 56.157 76.4283L54.7239 55.6541C54.8559 55.645 54.9512 55.6428 54.9867 55.6421C55.0045 55.6418 55.0117 55.6418 55.0011 55.6419C54.9878 55.6419 54.9708 55.6419 54.9265 55.6419V76.4655ZM55.9594 76.4401C65.4784 75.965 75.2698 68.4486 75.2698 55.3058H54.4462C54.4462 55.5854 54.4222 55.7757 54.4011 55.8895C54.3803 56.0023 54.3601 56.0524 54.3593 56.0544C54.3586 56.0562 54.3699 56.0283 54.4003 55.9825C54.4304 55.9373 54.4694 55.8891 54.5156 55.8433C54.6087 55.7508 54.6953 55.7022 54.749 55.6794C54.7943 55.6601 54.8442 55.6463 54.9215 55.6424L55.9594 76.4401ZM75.2698 55.3058V54.8238H54.4462V55.3058H75.2698ZM64.858 44.4121H44.9953V65.2356H64.858V44.4121ZM34.5835 54.8238V55.3058H55.407V54.8238H34.5835ZM34.5835 55.3058C34.5835 68.4371 44.3584 75.9512 53.8686 76.4393L54.936 55.6432C55.0117 55.647 55.0607 55.6606 55.1056 55.6798C55.1588 55.7025 55.2451 55.751 55.3381 55.8433C55.3842 55.8891 55.4231 55.9372 55.453 55.9824C55.4833 56.0281 55.4946 56.0559 55.4939 56.054C55.493 56.052 55.4729 56.0018 55.452 55.889C55.431 55.7752 55.407 55.5851 55.407 55.3058H34.5835ZM54.4023 76.453H54.4232V55.6295H54.4023V76.453ZM33.6523 62.1677C35.4403 62.6333 37.2718 62.9146 39.1193 63.0062L40.151 42.2083C39.7295 42.1874 39.3109 42.1232 38.9004 42.0163L33.6523 62.1677ZM39.6351 63.019H39.6685V42.1955H39.6351V63.019ZM39.1265 63.0049C39.606 63.0299 40.0625 63.0397 40.486 63.0397V42.2162C40.3811 42.2162 40.2885 42.2137 40.2106 42.2096L39.1265 63.0049ZM40.486 63.0397C40.6865 63.0397 41.3542 63.0446 42.0846 62.9892L40.51 42.2253C40.5726 42.2206 40.6203 42.2181 40.6494 42.2169C40.6784 42.2157 40.6936 42.2154 40.6904 42.2155C40.6891 42.2155 40.6842 42.2156 40.675 42.2157C40.6657 42.2158 40.653 42.2159 40.6358 42.216C40.6185 42.216 40.5982 42.2161 40.5729 42.2161C40.5604 42.2161 40.5471 42.2162 40.5325 42.2162C40.5177 42.2162 40.5028 42.2162 40.486 42.2162V63.0397ZM41.2973 63.019H41.3203V42.1955H41.2973V63.019ZM41.8301 63.0065C51.1303 62.5506 59.3351 57.44 63.7127 49.3157L45.3809 39.4381C44.5246 41.0274 42.9559 42.1028 40.8105 42.208L41.8301 63.0065ZM54.5468 54.7887H55.379V33.9652H54.5468V54.7887ZM46.1875 49.2678C48.4371 53.4955 51.8199 57.0126 55.9554 59.4264L66.4524 41.4421C65.6536 40.9759 65.0026 40.298 64.5705 39.486L46.1875 49.2678ZM55.9407 59.4178L56.4901 59.7397L67.0165 41.7726L66.4671 41.4508L55.9407 59.4178ZM71.1664 55.2058L78.6303 39.4163L59.8042 30.517L52.3403 46.3065L71.1664 55.2058ZM69.2172 24.5549H47.9585V45.3784H69.2172V24.5549ZM39.3574 29.0993L27.6752 46.2247L44.8775 57.9593L56.5597 40.834L39.3574 29.0993ZM99.2424 9.6134C94.6346 5.01236 88.3874 2.432 81.8806 2.432V23.2555C82.8776 23.2555 83.8307 23.6516 84.5289 24.3487L99.2424 9.6134ZM81.8806 2.432H80.6012V23.2555H81.8806V2.432ZM80.1842 2.44035C78.5774 2.50476 76.9801 2.72134 75.414 3.08717L80.1508 23.3648C80.4357 23.2983 80.7262 23.2589 81.0183 23.2472L80.1842 2.44035ZM75.5778 3.05031C67.159 4.87433 60.3332 11.3017 57.7398 19.1221L77.5048 25.6767C77.8529 24.627 78.9906 23.6176 79.9871 23.4017L75.5778 3.05031ZM67.6223 11.9876H42.4504V32.8111H67.6223V11.9876ZM52.3849 19.283C51.0373 14.9871 48.4828 11.1697 45.0264 8.28449L31.6823 24.2706C32.0752 24.5986 32.364 25.031 32.516 25.5158L52.3849 19.283ZM45.1457 8.38568C40.7512 4.60389 35.162 2.49668 29.366 2.43263L29.1359 23.2549C30.0301 23.2648 30.8896 23.59 31.5629 24.1694L45.1457 8.38568ZM27.981 2.432C22.3897 2.42692 16.9623 4.32852 12.5976 7.82484L25.6162 24.0771C26.2797 23.5456 27.1073 23.2547 27.9621 23.2555L27.981 2.432ZM12.5976 7.82484C8.23255 11.3214 5.19145 16.204 3.98132 21.6659L24.3118 26.1703C24.4942 25.3474 24.9531 24.6083 25.6162 24.0771L12.5976 7.82484ZM3.98132 21.6659C2.77116 27.1281 3.46545 32.8388 5.94815 37.8519L24.6087 28.6104C24.2339 27.8536 24.1296 26.993 24.3118 26.1703L3.98132 21.6659ZM5.94812 37.8518C8.43058 42.8645 12.5513 46.8774 17.6252 49.2289L26.3811 30.3357C25.608 29.9774 24.9837 29.3676 24.6087 28.6105L5.94812 37.8518ZM12.0214 36.8211L2.05043 70.4319L22.014 76.3543L31.9849 42.7435L12.0214 36.8211ZM6.70328 82.3378L49.6326 107.914L60.2905 90.0243L17.3612 64.4484L6.70328 82.3378ZM60.29 107.914L103.144 82.3859L92.4874 64.496L49.6331 90.024L60.29 107.914ZM107.848 70.6567L98.5058 36.9919L78.4406 42.5604L87.7833 76.2252L107.848 70.6567ZM59.7213 78.537L26.8129 61.6588L17.3099 80.1875L50.2182 97.0656L59.7213 78.537ZM32.2234 73.1901L37.5989 49.0933L17.2749 44.5594L11.8994 68.6562L32.2234 73.1901ZM27.4369 57.2381H28.1151V36.4146H27.4369V57.2381ZM20.032 53.389C21.9016 55.6918 24.1574 57.6513 26.6981 59.1806L37.4373 41.34C36.964 41.0551 36.5449 40.6908 36.1982 40.2638L20.032 53.389ZM26.6029 59.1226L27.098 59.428L38.0276 41.7033L37.5325 41.398L26.6029 59.1226ZM41.9745 55.0182L49.3284 39.4736L30.505 30.5686L23.1511 46.1131L41.9745 55.0182ZM39.9167 24.6093H28.9847V45.4328H39.9167V24.6093ZM28.9847 24.6093C30.0643 24.6093 31.103 25.0374 31.8713 25.8047L17.1573 40.5395C20.2968 43.6746 24.5516 45.4328 28.9847 45.4328V24.6093ZM31.8712 25.8045C32.6398 26.572 33.0744 27.6162 33.0744 28.7082H12.2508C12.2508 33.1487 14.0176 37.4043 17.1574 40.5396L31.8712 25.8045ZM33.0744 28.7082C33.0744 29.8001 32.6398 30.8443 31.8712 31.6118L17.1574 16.8767C14.0176 20.012 12.2508 24.2676 12.2508 28.7082H33.0744ZM31.8712 31.6118C31.1031 32.3788 30.0645 32.807 28.9847 32.807V11.9835C24.5514 11.9835 20.2967 13.7419 17.1574 16.8767L31.8712 31.6118ZM28.9847 32.807C28.7661 32.807 28.6045 32.798 28.5456 32.7945C28.5146 32.7926 28.4966 32.7913 28.5063 32.792C28.5112 32.7923 28.5176 32.7928 28.5332 32.794C28.546 32.7949 28.5688 32.7966 28.5927 32.7984L30.1006 12.0295C30.0959 12.0291 30.0899 12.0287 30.0735 12.0275C30.06 12.0265 30.0371 12.0248 30.0125 12.023C29.963 12.0194 29.8851 12.0139 29.7935 12.0084C29.6134 11.9976 29.328 11.9835 28.9847 11.9835V32.807ZM28.9122 32.8166C28.1354 32.7842 27.3813 32.5395 26.7321 32.1078L38.2618 14.7675C35.7396 13.0905 32.8061 12.1375 29.7811 12.0112L28.9122 32.8166ZM26.7317 32.1075C26.0823 31.6757 25.5622 31.073 25.2298 30.3635L44.0855 21.5271C42.7992 18.7825 40.7844 16.445 38.2622 14.7678L26.7317 32.1075ZM25.2924 30.4947C25.0128 29.9193 24.8687 29.2883 24.8701 28.6503L45.6936 28.6954C45.6991 26.168 45.1282 23.6715 44.0229 21.3959L25.2924 30.4947ZM24.8701 28.6959C24.8696 28.4877 24.8838 28.283 24.9112 28.0835L45.5401 30.924C45.6434 30.1738 45.6953 29.4139 45.6936 28.6498L24.8701 28.6959ZM24.8139 29.5038V29.8465H45.6374V29.5038H24.8139ZM35.2257 40.2583H74.6911V19.4348H35.2257V40.2583ZM84.9019 27.8106C84.9602 28.1031 84.9893 28.4009 84.9885 28.6999L64.165 28.6458C64.1622 29.7328 64.2679 30.8171 64.4803 31.8824L84.9019 27.8106ZM84.9885 28.697C84.9863 29.6317 84.6681 30.5369 84.0875 31.2659L67.7985 18.2933C65.4547 21.2363 64.1737 24.8853 64.165 28.6487L84.9885 28.697ZM84.0868 31.2668C83.5071 31.9946 82.7002 32.5034 81.798 32.7138L77.0703 12.434C73.4098 13.2874 70.1426 15.3507 67.7992 18.2924L84.0868 31.2668ZM81.878 32.6948C81.2637 32.8431 80.6238 32.8496 80.0066 32.7138L84.4821 12.3769C82.0115 11.8332 79.4494 11.8592 76.9903 12.453L81.878 32.6948ZM80.0064 32.7137C79.3893 32.5779 78.8099 32.3031 78.3128 31.9089L91.2512 15.5927C89.2679 14.02 86.9528 12.9207 84.4824 12.3769L80.0064 32.7137ZM78.3139 31.9098C77.8166 31.5155 77.4146 31.0121 77.1397 30.4371L95.9262 21.4545C94.8336 19.1694 93.234 17.1646 91.2501 15.5918L78.3139 31.9098ZM77.1397 30.4371C76.8649 29.8625 76.7249 29.2326 76.7304 28.5952L97.5531 28.7754C97.5751 26.243 97.0186 23.7392 95.9262 21.4545L77.1397 30.4371ZM76.73 28.7134C76.7271 27.628 77.1548 26.5893 77.9141 25.8229L92.7061 40.4795C95.8205 37.3364 97.5654 33.0863 97.5535 28.6572L76.73 28.7134ZM77.9147 25.8224C78.6738 25.0563 79.7024 24.6245 80.7745 24.616L80.9399 45.4389C85.3606 45.4037 89.591 43.623 92.7056 40.4801L77.9147 25.8224ZM80.8572 24.6157H77.5287V45.4392H80.8572V24.6157ZM68.9372 29.1462L57.2001 46.2922L74.3832 58.0547L86.1203 40.9087L68.9372 29.1462ZM63.4959 62.329C65.0021 62.6694 66.535 62.8788 68.0767 62.9548L69.1024 42.1566C68.7604 42.1397 68.4206 42.0933 68.0874 42.0179L63.4959 62.329ZM68.5895 62.9675H68.6186V42.1439H68.5895V62.9675ZM67.9199 62.944C68.6016 62.9898 69.2239 62.9861 69.4302 62.9861V42.1626C69.3622 42.1626 69.3191 42.1625 69.279 42.1624C69.2413 42.1622 69.2204 42.1619 69.2096 42.1617C69.1992 42.1616 69.2044 42.1616 69.2214 42.1622C69.2384 42.1629 69.2714 42.1643 69.3174 42.1674L67.9199 62.944ZM69.4302 62.9861C69.6577 62.9861 70.2444 62.9889 70.9125 62.9471L69.6119 42.1643C69.6626 42.1611 69.6839 42.1612 69.6564 42.1617C69.6425 42.1619 69.6197 42.1622 69.5818 42.1624C69.5412 42.1625 69.498 42.1626 69.4302 42.1626V62.9861ZM70.7785 62.9547C78.5847 62.5671 85.7795 58.8511 90.4692 52.6434L73.854 40.0913C72.9851 41.2414 71.5672 42.0663 69.7458 42.1567L70.7785 62.9547ZM82.1616 56.7791H82.8315V35.9556H82.1616V56.7791ZM72.631 48.4543L77.6528 72.9997L98.0537 68.8258L93.032 44.2804L72.631 48.4543ZM83.0966 61.651L50.2131 78.5396L59.7265 97.063L92.61 80.1744L83.0966 61.651Z" fill="white" mask="url(#path-1-outside-1_1819_4720)"/>
</svg>
